<svg xmlns="http://www.w3.org/2000/svg" xmlns:xlink="http://www.w3.org/1999/xlink" width="76.241" height="88.909" viewBox="0 0 76.241 88.909">
  <defs>
    <linearGradient id="linear-gradient" y1="0.5" x2="1.002" y2="0.5" gradientUnits="objectBoundingBox">
      <stop offset="0" stop-color="#9d6f28"/>
      <stop offset="0.02" stop-color="#a2752c"/>
      <stop offset="0.156" stop-color="#c29d46"/>
      <stop offset="0.281" stop-color="#daba59"/>
      <stop offset="0.389" stop-color="#e8cc64"/>
      <stop offset="0.467" stop-color="#eed369"/>
      <stop offset="0.55" stop-color="#e9cd65"/>
      <stop offset="0.653" stop-color="#dbbe5d"/>
      <stop offset="0.767" stop-color="#c3a54e"/>
      <stop offset="0.888" stop-color="#a3823a"/>
      <stop offset="1" stop-color="#805b24"/>
    </linearGradient>
    <linearGradient id="linear-gradient-2" x1="0" y1="0.5" x2="1" y2="0.5" xlink:href="#linear-gradient"/>
    <linearGradient id="linear-gradient-6" x1="0" y1="0.5" x2="1" y2="0.5" xlink:href="#linear-gradient"/>
  </defs>
  <g id="Grupo_3979" data-name="Grupo 3979" transform="translate(-284.193 504.045)">
    <g id="Grupo_3971" data-name="Grupo 3971" transform="translate(284.193 -438.164)">
      <g id="Grupo_3968" data-name="Grupo 3968">
        <path id="Caminho_3098" data-name="Caminho 3098" d="M284.193-410.741a.284.284,0,0,1,.321-.321h11.562a5.791,5.791,0,0,1,2.135.385,4.933,4.933,0,0,1,1.7,1.108,5.222,5.222,0,0,1,1.14,1.751,6.094,6.094,0,0,1,.417,2.313,10.38,10.38,0,0,1-.289,2.746,5.309,5.309,0,0,1-.658,1.542,2.52,2.52,0,0,1-.658.707q-.289.176-.289.273,0,.16.5.674t1.108,1.188a3.377,3.377,0,0,1,.4.674,7.139,7.139,0,0,1,.305.786,4.369,4.369,0,0,1,.176.8,5.972,5.972,0,0,1,.048.691,13.776,13.776,0,0,1-.289,2.89,6.118,6.118,0,0,1-1.012,2.345,5.039,5.039,0,0,1-1.911,1.574,6.9,6.9,0,0,1-3.019.577h-11.37a.283.283,0,0,1-.321-.321Zm4.657,8.576a.283.283,0,0,0,.321.321h5.556a2.483,2.483,0,0,0,1.831-.562,2.931,2.931,0,0,0,.546-2.04,2.252,2.252,0,0,0-.706-1.911,2.707,2.707,0,0,0-1.67-.53h-5.556a.284.284,0,0,0-.321.322Zm0,9.635a.283.283,0,0,0,.321.321h6.777a1.371,1.371,0,0,0,.9-.289,2.267,2.267,0,0,0,.578-.722,3.082,3.082,0,0,0,.3-.916,5.223,5.223,0,0,0,.081-.835,3.734,3.734,0,0,0-.177-1.236,2.216,2.216,0,0,0-.449-.787,1.482,1.482,0,0,0-.61-.4,1.991,1.991,0,0,0-.626-.113h-6.777a.283.283,0,0,0-.321.321Z" transform="translate(-284.193 411.062)" fill="#b5b4b5"/>
        <path id="Caminho_3099" data-name="Caminho 3099" d="M313.671-388.355v-18.371a.284.284,0,0,0-.321-.321h-.867a.284.284,0,0,1-.322-.321v-3.373a.284.284,0,0,1,.322-.321h4.335a1.207,1.207,0,0,1,.867.305,1.162,1.162,0,0,1,.322.884v21.519a.284.284,0,0,1-.322.321h-3.694A.283.283,0,0,1,313.671-388.355Z" transform="translate(-292.345 411.062)" fill="#b5b4b5"/>
      </g>
      <g id="Grupo_3970" data-name="Grupo 3970" transform="translate(31.444)">
        <path id="Caminho_3100" data-name="Caminho 3100" d="M356.567-406.424a.994.994,0,0,1-1.129-1.12v-2.4a.993.993,0,0,1,1.129-1.119h3.35a.993.993,0,0,1,1.129,1.119v2.4a.994.994,0,0,1-1.129,1.12Zm4.479,18.39h-5.607v-17.431h5.607Z" transform="translate(-336.403 411.062)" fill="#76201f"/>
        <path id="Caminho_3101" data-name="Caminho 3101" d="M370.528-394.75q0,2.878,3.35,2.879v3.837h-3.136q-5.823,0-5.822-6.716v-16.312h5.608Z" transform="translate(-339.167 411.062)" fill="#76201f"/>
        <path id="Caminho_3102" data-name="Caminho 3102" d="M384.764-394.75q0,2.878,3.35,2.879v3.837H384.98q-5.823,0-5.823-6.716v-16.312h5.607Z" transform="translate(-343.316 411.062)" fill="#76201f"/>
        <g id="Grupo_3969" data-name="Grupo 3969">
          <path id="Caminho_3103" data-name="Caminho 3103" d="M328.572-410.741a.284.284,0,0,1,.321-.321h11.562a5.791,5.791,0,0,1,2.135.385,4.934,4.934,0,0,1,1.7,1.108,5.221,5.221,0,0,1,1.14,1.751,6.094,6.094,0,0,1,.417,2.313,10.379,10.379,0,0,1-.289,2.746,5.309,5.309,0,0,1-.658,1.542,2.52,2.52,0,0,1-.658.707q-.289.176-.289.273,0,.16.5.674t1.108,1.188a3.376,3.376,0,0,1,.4.674,7.127,7.127,0,0,1,.305.786,4.369,4.369,0,0,1,.176.8,5.971,5.971,0,0,1,.048.691,13.774,13.774,0,0,1-.289,2.89,6.117,6.117,0,0,1-1.012,2.345,5.039,5.039,0,0,1-1.911,1.574,6.9,6.9,0,0,1-3.019.577h-11.37a.283.283,0,0,1-.321-.321Zm4.657,8.576a.283.283,0,0,0,.321.321h5.556a2.483,2.483,0,0,0,1.831-.562,2.931,2.931,0,0,0,.546-2.04,2.252,2.252,0,0,0-.706-1.911,2.707,2.707,0,0,0-1.67-.53H333.55a.284.284,0,0,0-.321.322Zm0,9.635a.283.283,0,0,0,.321.321h6.777a1.371,1.371,0,0,0,.9-.289,2.267,2.267,0,0,0,.578-.722,3.08,3.08,0,0,0,.3-.916,5.216,5.216,0,0,0,.081-.835,3.734,3.734,0,0,0-.177-1.236,2.216,2.216,0,0,0-.449-.787,1.482,1.482,0,0,0-.61-.4,1.992,1.992,0,0,0-.626-.113H333.55a.283.283,0,0,0-.321.321Z" transform="translate(-328.572 411.062)" fill="#76201f"/>
        </g>
      </g>
    </g>
    <g id="Grupo_3978" data-name="Grupo 3978" transform="translate(288.907 -504.045)">
      <path id="Caminho_3104" data-name="Caminho 3104" d="M363.777-447.422a5.177,5.177,0,0,1-7.187,1.481.025.025,0,0,0-.014-.007,5.187,5.187,0,0,1-1.467-7.187,5.193,5.193,0,0,1,7.194-1.481A5.185,5.185,0,0,1,363.777-447.422Z" transform="translate(-309.327 489.887)" fill="#76201f"/>
      <path id="Caminho_3105" data-name="Caminho 3105" d="M363.777-447.422a5.177,5.177,0,0,1-7.187,1.481.025.025,0,0,0-.014-.007,5.187,5.187,0,0,1-1.467-7.187,5.193,5.193,0,0,1,7.194-1.481A5.185,5.185,0,0,1,363.777-447.422Z" transform="translate(-309.327 489.887)" fill="#76201f"/>
      <g id="Grupo_3972" data-name="Grupo 3972" transform="translate(32.32 22.445)">
        <path id="Caminho_3106" data-name="Caminho 3106" d="M336.462-472.366l.006.017v-.017Z" transform="translate(-336.462 472.366)" fill="url(#linear-gradient)"/>
      </g>
      <g id="Grupo_3973" data-name="Grupo 3973" transform="translate(0)">
        <path id="Caminho_3107" data-name="Caminho 3107" d="M344.77-503.408H292.907a1.421,1.421,0,0,0-1.424,1.4v45.8a1.407,1.407,0,0,0,.58,1.128,1.42,1.42,0,0,0,1.989-.3l1.005-1.117,4.858,4.9a1.425,1.425,0,0,0,.995.4,1.424,1.424,0,0,0,.994-.4l5.088-4.853,4.943,4.937a.012.012,0,0,1,.011.011,1.417,1.417,0,0,0,2-.011l.084-.089,4.708-4.848.112.106a5.877,5.877,0,0,1,.782-1.827l.53-.832-.558-.5a1.416,1.416,0,0,0-1.977.056l-4.742,4.887-4.9-4.9a1.412,1.412,0,0,0-1.982,0l-5.066,4.853L296-459.587l-.084-.073a1.4,1.4,0,0,0-1.586-.184V-500.56h49.043v11.533a5.631,5.631,0,0,1,2.843.876v-13.857A1.422,1.422,0,0,0,344.77-503.408Z" transform="translate(-291.032 503.859)" fill="url(#linear-gradient-2)"/>
        <path id="Caminho_3108" data-name="Caminho 3108" d="M312.754-450.831a1.861,1.861,0,0,1-1.308-.533l0,0-.012-.011L306.8-456l-4.77,4.55a1.951,1.951,0,0,1-2.614,0l-4.528-4.565-.687.763a1.83,1.83,0,0,1-1.2.7,1.853,1.853,0,0,1-1.39-.348,1.871,1.871,0,0,1-.763-1.484v-45.8a1.884,1.884,0,0,1,1.875-1.852h51.86a1.88,1.88,0,0,1,1.331.529,1.857,1.857,0,0,1,.569,1.318v13.862a.451.451,0,0,1-.234.4.449.449,0,0,1-.459-.016,5.193,5.193,0,0,0-2.615-.806.45.45,0,0,1-.435-.45v-11.083H294.6v39.661a1.847,1.847,0,0,1,1.432.449l.082.072,4.651,4.7,4.746-4.547a1.87,1.87,0,0,1,2.611.005l4.576,4.576,4.423-4.559a1.856,1.856,0,0,1,2.606-.073l.553.491a.452.452,0,0,1,.081.579l-.531.833a5.43,5.43,0,0,0-.724,1.69.451.451,0,0,1-.311.326.433.433,0,0,1-.15.018l-4.551,4.689A1.875,1.875,0,0,1,312.754-450.831Zm-.677-1.176a.971.971,0,0,0,1.364-.006l.075-.081,4.714-4.853a.455.455,0,0,1,.106-.081,6.244,6.244,0,0,1,.734-1.572l.322-.505-.272-.242a.962.962,0,0,0-1.354.033l-4.741,4.887a.492.492,0,0,1-.324.137.45.45,0,0,1-.318-.132l-4.9-4.9a.966.966,0,0,0-1.349,0l-5.069,4.857a.449.449,0,0,1-.632-.008l-5-5.036a.952.952,0,0,0-1.081-.126.45.45,0,0,1-.444-.013.452.452,0,0,1-.217-.386v-40.715a.45.45,0,0,1,.451-.451h49.043a.45.45,0,0,1,.451.451v11.113a6.1,6.1,0,0,1,1.941.536v-13.1a.958.958,0,0,0-.295-.677.922.922,0,0,0-.694-.274h-51.87a.977.977,0,0,0-.974.958v45.791a.952.952,0,0,0,.395.763.966.966,0,0,0,.724.184.969.969,0,0,0,.638-.384l1.032-1.149a.453.453,0,0,1,.324-.15.463.463,0,0,1,.331.133l4.859,4.9a1.019,1.019,0,0,0,1.353,0l5.092-4.858a.451.451,0,0,1,.63.007l4.939,4.934.011.011Z" transform="translate(-290.846 504.045)" fill="url(#linear-gradient-2)"/>
      </g>
      <g id="Grupo_3974" data-name="Grupo 3974" transform="translate(33.405 20.56)">
        <path id="Caminho_3109" data-name="Caminho 3109" d="M363.777-447.422a5.177,5.177,0,0,1-7.187,1.481.025.025,0,0,0-.014-.007,5.187,5.187,0,0,1-1.467-7.187,5.193,5.193,0,0,1,7.194-1.481A5.185,5.185,0,0,1,363.777-447.422Z" transform="translate(-342.732 469.327)" fill="#76201f"/>
        <path id="Caminho_3110" data-name="Caminho 3110" d="M356.692-475.026l-18.7,28.31,14.7,9.7L371.4-465.3ZM349.9-442.5l-5.811-3.849a2.608,2.608,0,0,0-.733-3.611l12.44-18.811a2.608,2.608,0,0,0,3.611-.733l5.811,3.842a2.611,2.611,0,0,0,.74,3.611l-12.44,18.81A2.621,2.621,0,0,0,349.9-442.5Z" transform="translate(-337.994 475.026)" fill="#76201f"/>
        <path id="Caminho_3111" data-name="Caminho 3111" d="M363.777-447.422a5.177,5.177,0,0,1-7.187,1.481.025.025,0,0,0-.014-.007,5.187,5.187,0,0,1-1.467-7.187,5.193,5.193,0,0,1,7.194-1.481A5.185,5.185,0,0,1,363.777-447.422Z" transform="translate(-342.732 469.327)" fill="#76201f"/>
      </g>
      <path id="Caminho_3112" data-name="Caminho 3112" d="M363.777-447.422a5.177,5.177,0,0,1-7.187,1.481.025.025,0,0,0-.014-.007,5.187,5.187,0,0,1-1.467-7.187,5.193,5.193,0,0,1,7.194-1.481A5.185,5.185,0,0,1,363.777-447.422Z" transform="translate(-309.327 489.887)" fill="#76201f"/>
      <path id="Caminho_3113" data-name="Caminho 3113" d="M308.426-465.549a2.862,2.862,0,0,1-.508-.062l-.884-.133-.548-.09q-.266-.047-.528-.106c-.188-.043-.36-.082-.512-.125l-.207-.055v-3.418l.966.078.711.043.743.035.759.023h1.959a3.821,3.821,0,0,0,.43-.067,1.454,1.454,0,0,0,.3-.1.739.739,0,0,0,.184-.125.41.41,0,0,0,.09-.141.683.683,0,0,0,.035-.227v-.227a.437.437,0,0,0-.176-.391.847.847,0,0,0-.235-.118.975.975,0,0,0-.289-.039h-1a7.149,7.149,0,0,1-2-.25,3.947,3.947,0,0,1-1.5-.782,3.17,3.17,0,0,1-.931-1.4,6.15,6.15,0,0,1-.3-2.03v-.622a5.153,5.153,0,0,1,.332-1.912,3.454,3.454,0,0,1,1.017-1.4,4.805,4.805,0,0,1,1-.661,4.052,4.052,0,0,1,1.088-.324V-481.7h3.152v1.455a13.715,13.715,0,0,1,1.44.207l.261.047.661.125c.208.043.391.086.591.133l.215.051v3.426l-.3-.028-.911-.067-1.025-.055-1.025-.035h-1.411a4.082,4.082,0,0,0-.414.051,1.277,1.277,0,0,0-.3.09.705.705,0,0,0-.191.137.406.406,0,0,0-.106.169.869.869,0,0,0-.039.289v.192a.784.784,0,0,0,.05.3.5.5,0,0,0,.145.192.741.741,0,0,0,.277.129,1.839,1.839,0,0,0,.47.051h1.243a5.9,5.9,0,0,1,1.271.133,3.878,3.878,0,0,1,1.06.391,3.519,3.519,0,0,1,1.431,1.471,4.293,4.293,0,0,1,.363,1,4.994,4.994,0,0,1,.118,1.1v.621a7.372,7.372,0,0,1-.176,1.635,3.658,3.658,0,0,1-.5,1.244,3.21,3.21,0,0,1-.825.864,3.513,3.513,0,0,1-1.1.524l-.106.031a6.2,6.2,0,0,1-1.173.25v1.643h-3.14Z" transform="translate(-294.969 497.531)" fill="#76201f"/>
      <g id="Grupo_3975" data-name="Grupo 3975" transform="translate(23.769 29.529)">
        <path id="Caminho_3114" data-name="Caminho 3114" d="M337.172-461.732a1.173,1.173,0,0,1,1.173,1.173,1.173,1.173,0,0,1-1.173,1.173H326.2a1.173,1.173,0,0,1-1.173-1.173,1.173,1.173,0,0,1,1.173-1.173Z" transform="translate(-324.578 462.183)" fill="url(#linear-gradient-2)"/>
        <path id="Caminho_3115" data-name="Caminho 3115" d="M336.986-459.12H326.017a1.626,1.626,0,0,1-1.624-1.624,1.626,1.626,0,0,1,1.624-1.624h10.969a1.626,1.626,0,0,1,1.624,1.624A1.626,1.626,0,0,1,336.986-459.12Zm-10.969-2.347a.724.724,0,0,0-.723.723.724.724,0,0,0,.723.723h10.969a.724.724,0,0,0,.723-.723.724.724,0,0,0-.723-.723Z" transform="translate(-324.393 462.368)" fill="url(#linear-gradient-2)"/>
      </g>
      <g id="Grupo_3976" data-name="Grupo 3976" transform="translate(23.769 23.123)">
        <path id="Caminho_3116" data-name="Caminho 3116" d="M343.3-470.773a1.173,1.173,0,0,1,1.173,1.173,1.173,1.173,0,0,1-1.173,1.173H326.2a1.173,1.173,0,0,1-1.173-1.173,1.173,1.173,0,0,1,1.173-1.173Z" transform="translate(-324.578 471.224)" fill="url(#linear-gradient-6)"/>
        <path id="Caminho_3117" data-name="Caminho 3117" d="M343.111-468.161H326.017a1.626,1.626,0,0,1-1.624-1.624,1.626,1.626,0,0,1,1.624-1.624h17.094a1.626,1.626,0,0,1,1.624,1.624A1.626,1.626,0,0,1,343.111-468.161Zm-17.094-2.347a.723.723,0,0,0-.723.723.724.724,0,0,0,.723.723h17.094a.724.724,0,0,0,.723-.723.723.723,0,0,0-.723-.723Z" transform="translate(-324.393 471.409)" fill="url(#linear-gradient-6)"/>
      </g>
      <g id="Grupo_3977" data-name="Grupo 3977" transform="translate(23.769 16.764)">
        <path id="Caminho_3118" data-name="Caminho 3118" d="M343.335-479.748a1.173,1.173,0,0,1,1.173,1.173,1.173,1.173,0,0,1-1.173,1.173H326.2a1.173,1.173,0,0,1-1.173-1.173,1.173,1.173,0,0,1,1.173-1.173Z" transform="translate(-324.578 480.199)" fill="url(#linear-gradient-2)"/>
        <path id="Caminho_3119" data-name="Caminho 3119" d="M343.15-477.136H326.017a1.626,1.626,0,0,1-1.624-1.624,1.626,1.626,0,0,1,1.624-1.624H343.15a1.625,1.625,0,0,1,1.623,1.624A1.625,1.625,0,0,1,343.15-477.136Zm-17.134-2.347a.723.723,0,0,0-.723.723.724.724,0,0,0,.723.723H343.15a.723.723,0,0,0,.722-.723.723.723,0,0,0-.722-.723Z" transform="translate(-324.393 480.384)" fill="url(#linear-gradient-6)"/>
      </g>
    </g>
  </g>
</svg>
