<svg xmlns="http://www.w3.org/2000/svg" xmlns:xlink="http://www.w3.org/1999/xlink" width="121.505" height="101.618" viewBox="0 0 121.505 101.618">
  <defs>
    <linearGradient id="linear-gradient" y1="0.5" x2="1" y2="0.5" gradientUnits="objectBoundingBox">
      <stop offset="0" stop-color="#9d6f28"/>
      <stop offset="0.02" stop-color="#a2752c"/>
      <stop offset="0.156" stop-color="#c29d46"/>
      <stop offset="0.281" stop-color="#daba59"/>
      <stop offset="0.389" stop-color="#e8cc64"/>
      <stop offset="0.467" stop-color="#eed369"/>
      <stop offset="0.55" stop-color="#e9cd65"/>
      <stop offset="0.653" stop-color="#dbbe5d"/>
      <stop offset="0.767" stop-color="#c3a54e"/>
      <stop offset="0.888" stop-color="#a3823a"/>
      <stop offset="1" stop-color="#805b24"/>
    </linearGradient>
  </defs>
  <g id="Grupo_3967" data-name="Grupo 3967" transform="translate(-509.181 504.045)">
    <g id="Grupo_3964" data-name="Grupo 3964" transform="translate(509.181 -428.747)">
      <path id="Caminho_3087" data-name="Caminho 3087" d="M509.181-410.7a.325.325,0,0,1,.367-.367h13.215a6.624,6.624,0,0,1,2.442.441,5.645,5.645,0,0,1,1.945,1.267,5.983,5.983,0,0,1,1.3,2,6.981,6.981,0,0,1,.477,2.643,11.864,11.864,0,0,1-.33,3.138,6.047,6.047,0,0,1-.753,1.762,2.882,2.882,0,0,1-.752.808q-.33.2-.33.312,0,.183.569.771t1.267,1.358a3.936,3.936,0,0,1,.459.771,8.313,8.313,0,0,1,.348.9,5,5,0,0,1,.2.918,6.8,6.8,0,0,1,.054.79,15.692,15.692,0,0,1-.33,3.3,7,7,0,0,1-1.156,2.68,5.762,5.762,0,0,1-2.185,1.8,7.883,7.883,0,0,1-3.451.66H509.548a.324.324,0,0,1-.367-.367Zm5.323,9.8a.324.324,0,0,0,.367.367h6.351a2.835,2.835,0,0,0,2.092-.642,3.345,3.345,0,0,0,.624-2.331,2.576,2.576,0,0,0-.807-2.184,3.1,3.1,0,0,0-1.909-.606h-6.351a.325.325,0,0,0-.367.368Zm0,11.012a.324.324,0,0,0,.367.367h7.746a1.566,1.566,0,0,0,1.028-.33,2.592,2.592,0,0,0,.661-.825,3.545,3.545,0,0,0,.349-1.047,5.96,5.96,0,0,0,.091-.954,4.289,4.289,0,0,0-.2-1.413,2.534,2.534,0,0,0-.514-.9,1.694,1.694,0,0,0-.7-.458,2.268,2.268,0,0,0-.716-.129h-7.746a.324.324,0,0,0-.367.367Z" transform="translate(-509.181 411.062)" fill="#b5b4b5"/>
      <path id="Caminho_3088" data-name="Caminho 3088" d="M538.875-385.109v-21a.325.325,0,0,0-.367-.367h-.991a.324.324,0,0,1-.367-.367V-410.7a.325.325,0,0,1,.367-.367h4.956a1.382,1.382,0,0,1,.991.349,1.328,1.328,0,0,1,.367,1.01v24.594a.324.324,0,0,1-.367.367h-4.221A.324.324,0,0,1,538.875-385.109Z" transform="translate(-514.501 411.062)" fill="#b5b4b5"/>
    </g>
    <g id="Grupo_3965" data-name="Grupo 3965" transform="translate(541.375 -428.747)">
      <path id="Caminho_3089" data-name="Caminho 3089" d="M548.936-402.876a9.816,9.816,0,0,1,.441-2.974,4.57,4.57,0,0,1,.606-1.376,11.793,11.793,0,0,1,.789-1.046,7.98,7.98,0,0,1,2.716-2.056,7.9,7.9,0,0,1,3.377-.734h9.728a.325.325,0,0,1,.367.367v4.038a.324.324,0,0,1-.367.367h-9.508a3.062,3.062,0,0,0-2.129,1.487,6.1,6.1,0,0,0-.7,3.1v9.288a3.256,3.256,0,0,0,.826,2.037,3,3,0,0,0,2,.862h9.508a.325.325,0,0,1,.367.368v4.038a.324.324,0,0,1-.367.367h-9.4a8.379,8.379,0,0,1-1.945-.2,9.967,9.967,0,0,1-1.468-.458,6.563,6.563,0,0,1-2.5-1.671,9.339,9.339,0,0,1-1.8-2.772,7.043,7.043,0,0,1-.367-1.083,6.46,6.46,0,0,1-.184-1.67Z" transform="translate(-548.936 411.062)" fill="#76201f"/>
      <path id="Caminho_3090" data-name="Caminho 3090" d="M575.922-402.177h10.352a4.4,4.4,0,0,1,2.368.606,4.946,4.946,0,0,1,1.578,1.56,6.875,6.875,0,0,1,.881,2.13,10.253,10.253,0,0,1,.275,2.349v12.114a.324.324,0,0,1-.367.367H578.2a2.468,2.468,0,0,1-1.8-.679,4.8,4.8,0,0,1-1.083-1.6,7.965,7.965,0,0,1-.532-1.836,9.57,9.57,0,0,1-.147-1.395,9.641,9.641,0,0,1,.22-1.946,7.332,7.332,0,0,1,.7-1.964,4.88,4.88,0,0,1,1.248-1.523,2.88,2.88,0,0,1,1.872-.624h6.13a2.353,2.353,0,0,0,1.523-.458,1.36,1.36,0,0,0,.569-1.083,1.765,1.765,0,0,0-.368-1.028,1.123,1.123,0,0,0-.954-.513h-9.654a.324.324,0,0,1-.367-.368v-3.745A.324.324,0,0,1,575.922-402.177Zm10.608,14.831a.325.325,0,0,0,.368-.368v-2.2a.325.325,0,0,0-.368-.367H580a1.026,1.026,0,0,0-.845.423,1.482,1.482,0,0,0-.33.935,1.754,1.754,0,0,0,.367,1.1,1.223,1.223,0,0,0,1.028.478Z" transform="translate(-553.825 409.372)" fill="#76201f"/>
      <path id="Caminho_3091" data-name="Caminho 3091" d="M608.636-402.177a.324.324,0,0,1,.367.367v3.745a.324.324,0,0,1-.367.368h-3.524a.985.985,0,0,0-.587.183,2.526,2.526,0,0,0-.459.422,1.88,1.88,0,0,0-.312.514,1.35,1.35,0,0,0-.11.5v12.664a.324.324,0,0,1-.367.367h-4.111a.324.324,0,0,1-.367-.367v-13.949a4.522,4.522,0,0,1,.385-1.836,4.967,4.967,0,0,1,1.046-1.542,4.986,4.986,0,0,1,1.542-1.046,4.619,4.619,0,0,1,1.871-.385Z" transform="translate(-558.42 409.372)" fill="#76201f"/>
      <path id="Caminho_3092" data-name="Caminho 3092" d="M626.573-404.234V-410.7a.325.325,0,0,1,.368-.367h3.745a.325.325,0,0,1,.367.367v25.586a.324.324,0,0,1-.367.367H619.268a5.005,5.005,0,0,1-3.01-.9,7.272,7.272,0,0,1-2.056-2.294,11.082,11.082,0,0,1-1.193-3.047,14.066,14.066,0,0,1-.385-3.194,18.987,18.987,0,0,1,.385-3.965,9.288,9.288,0,0,1,1.193-3.064,5.739,5.739,0,0,1,2.056-1.965,6.09,6.09,0,0,1,3.01-.7h6.938A.324.324,0,0,0,626.573-404.234Zm0,5.213a.324.324,0,0,0-.367-.367h-4a9.869,9.869,0,0,0-2.075.2,3.689,3.689,0,0,0-1.615.771,3.6,3.6,0,0,0-1.046,1.6,7.97,7.97,0,0,0-.367,2.642,6.927,6.927,0,0,0,.367,2.459,3.574,3.574,0,0,0,1.028,1.505,3.815,3.815,0,0,0,1.6.771,9.214,9.214,0,0,0,2.111.22h4a.324.324,0,0,0,.367-.367Z" transform="translate(-561.049 411.062)" fill="#76201f"/>
      <path id="Caminho_3093" data-name="Caminho 3093" d="M639.328-387.53h10.095a1.655,1.655,0,0,0,.807-.165,1.279,1.279,0,0,0,.459-.422,1.319,1.319,0,0,0,.2-.569,4.942,4.942,0,0,0,.037-.569,2.112,2.112,0,0,0-.239-.954.981.981,0,0,0-.973-.478h-5.763a5.33,5.33,0,0,1-2.239-.422,3.674,3.674,0,0,1-1.468-1.174,5.036,5.036,0,0,1-.808-1.8,9.641,9.641,0,0,1-.257-2.295,8.724,8.724,0,0,1,.422-2.974,3.694,3.694,0,0,1,1.285-1.762,5.122,5.122,0,0,1,2.2-.844,20.163,20.163,0,0,1,3.212-.22h7.93a.325.325,0,0,1,.367.367v3.745a.325.325,0,0,1-.367.368h-9.618a.912.912,0,0,0-.845.422,1.77,1.77,0,0,0-.257.936,1.889,1.889,0,0,0,.275.954.9.9,0,0,0,.826.478h5.359a8.523,8.523,0,0,1,2.459.312,3.521,3.521,0,0,1,1.671,1.046,4.72,4.72,0,0,1,.955,2,13.593,13.593,0,0,1,.312,3.175,8.343,8.343,0,0,1-.165,1.45,6.392,6.392,0,0,1-.606,1.762,4.472,4.472,0,0,1-1.23,1.487,3.186,3.186,0,0,1-2.037.624h-12a.324.324,0,0,1-.367-.367v-3.745A.324.324,0,0,1,639.328-387.53Z" transform="translate(-566.059 409.372)" fill="#76201f"/>
    </g>
    <g id="Grupo_3966" data-name="Grupo 3966" transform="translate(529.267 -504.045)">
      <path id="Caminho_3094" data-name="Caminho 3094" d="M603.541-504.045H546.307a12.344,12.344,0,0,0-12.322,12.336v42.273A12.346,12.346,0,0,0,546.307-437.1h57.234a12.365,12.365,0,0,0,12.274-11.086V-492.96A12.364,12.364,0,0,0,603.541-504.045Zm-66.121,7.53a10.092,10.092,0,0,1,8.887-5.309h57.234a10.133,10.133,0,0,1,8.9,5.309c.779,1.442-.315,2.77-1.947,2.77h-29.49c-1.365,0-2.229.284-2.212.68a1,1,0,0,0-.039.247c-.111.98,1.068,1.9,1.068,1.9l-.01,0c6.779,2.568,11.712,10.34,11.712,19.533,0,11.287-7.432,20.436-16.6,20.436s-16.6-9.149-16.6-20.436c0-9.365,5.122-17.239,12.1-19.656a2.879,2.879,0,0,0,.629-1.776c0-.147,0-.241,0-.241.015-.4-.852-.683-2.217-.683H539.352C537.721-493.744,536.64-495.072,537.42-496.515Zm-1.227,7.934a2.962,2.962,0,0,1,2.96-2.957h24.971a1.624,1.624,0,0,1,1.616.811,21.423,21.423,0,0,0-9.382,12H539.153a2.961,2.961,0,0,1-2.96-2.956Zm0,15.021a2.949,2.949,0,0,1,2.96-2.944H555.76a24.211,24.211,0,0,0-.573,5.163,24.032,24.032,0,0,0,1.092,7.143H539.153a2.961,2.961,0,0,1-2.96-2.957Zm0,14.529a2.95,2.95,0,0,1,2.96-2.944H557.1a20.627,20.627,0,0,0,11.364,11.319,1.743,1.743,0,0,1-1.322.428H539.153a2.963,2.963,0,0,1-2.96-2.958Zm23.789,16.749a2.957,2.957,0,0,1-2.953,2.956H546.307a10.058,10.058,0,0,1-9.13-5.869c-.68-1.486.486-2.829,2.118-2.829h17.734a2.959,2.959,0,0,1,2.953,2.958Zm30.3,0a2.958,2.958,0,0,1-2.956,2.956H565.148a2.958,2.958,0,0,1-2.957-2.956v-2.784a2.96,2.96,0,0,1,2.957-2.958h22.178a2.961,2.961,0,0,1,2.956,2.958Zm22.4-2.913a10.065,10.065,0,0,1-9.146,5.869h-8.093a2.96,2.96,0,0,1-2.958-2.956v-2.784a2.963,2.963,0,0,1,2.958-2.958h15.106C612.183-448.024,613.366-446.68,612.687-445.194Zm.97-7.993a2.955,2.955,0,0,1-2.958,2.958H582.71a1.732,1.732,0,0,1-1.332-.435c.017-.009.034-.021.053-.029a20.743,20.743,0,0,0,11.532-11.888H610.7a2.954,2.954,0,0,1,2.958,2.959Zm0-14.559a2.952,2.952,0,0,1-2.958,2.957H593.717a24.158,24.158,0,0,0,.9-6.55,24.123,24.123,0,0,0-.712-5.754h16.8a2.95,2.95,0,0,1,2.958,2.943Zm0-14.529a2.953,2.953,0,0,1-2.958,2.959H593.245A21.346,21.346,0,0,0,584.1-490.7a1.61,1.61,0,0,1,1.623-.833H610.7a2.964,2.964,0,0,1,2.958,2.957Z" transform="translate(-533.985 504.045)" fill="url(#linear-gradient)"/>
      <path id="Caminho_3095" data-name="Caminho 3095" d="M598.624-468.5c0,11.459-8.258,20.747-18.445,20.747S561.73-457.043,561.73-468.5s8.259-20.747,18.449-20.747S598.624-479.962,598.624-468.5Z" transform="translate(-539.262 501.231)" fill="#76201f"/>
      <path id="Caminho_3096" data-name="Caminho 3096" d="M568.488-477.362a.287.287,0,0,1,.326-.326h11.729a5.872,5.872,0,0,1,2.168.39,5.021,5.021,0,0,1,1.727,1.124,5.311,5.311,0,0,1,1.156,1.776,6.2,6.2,0,0,1,.424,2.346,10.547,10.547,0,0,1-.293,2.786,5.379,5.379,0,0,1-.668,1.565,2.551,2.551,0,0,1-.668.717q-.293.179-.292.277,0,.163.5.683t1.124,1.206a3.473,3.473,0,0,1,.407.684,7.349,7.349,0,0,1,.309.8,4.395,4.395,0,0,1,.179.815,5.885,5.885,0,0,1,.049.7,14.009,14.009,0,0,1-.293,2.932,6.2,6.2,0,0,1-1.026,2.378,5.115,5.115,0,0,1-1.939,1.6,7,7,0,0,1-3.063.586H568.814a.288.288,0,0,1-.326-.326Zm4.724,8.7a.288.288,0,0,0,.326.326h5.637a2.52,2.52,0,0,0,1.857-.57,2.97,2.97,0,0,0,.554-2.069,2.284,2.284,0,0,0-.717-1.939,2.744,2.744,0,0,0-1.694-.538h-5.637a.288.288,0,0,0-.326.326Zm0,9.775a.288.288,0,0,0,.326.326h6.874a1.393,1.393,0,0,0,.913-.293,2.315,2.315,0,0,0,.587-.733,3.133,3.133,0,0,0,.309-.929,5.257,5.257,0,0,0,.082-.847,3.775,3.775,0,0,0-.18-1.254,2.266,2.266,0,0,0-.456-.8,1.524,1.524,0,0,0-.62-.407,2.038,2.038,0,0,0-.636-.113h-6.874a.288.288,0,0,0-.326.326Z" transform="translate(-540.547 499.032)" fill="#fff"/>
      <path id="Caminho_3097" data-name="Caminho 3097" d="M594.844-454.653V-473.29a.288.288,0,0,0-.326-.326h-.879a.288.288,0,0,1-.326-.326v-3.421a.288.288,0,0,1,.326-.326h4.4a1.225,1.225,0,0,1,.88.309,1.178,1.178,0,0,1,.326.9v21.83a.288.288,0,0,1-.326.326H595.17A.288.288,0,0,1,594.844-454.653Z" transform="translate(-545.269 499.032)" fill="#fff"/>
    </g>
  </g>
</svg>
