<svg xmlns="http://www.w3.org/2000/svg" xmlns:xlink="http://www.w3.org/1999/xlink" width="167.61" height="97.385" viewBox="0 0 167.61 97.385">
  <defs>
    <linearGradient id="linear-gradient" x1="7.361" y1="5.198" x2="8.225" y2="5.198" gradientUnits="objectBoundingBox">
      <stop offset="0" stop-color="#9d6f28"/>
      <stop offset="0.02" stop-color="#a2752c"/>
      <stop offset="0.156" stop-color="#c29d46"/>
      <stop offset="0.281" stop-color="#daba59"/>
      <stop offset="0.389" stop-color="#e8cc64"/>
      <stop offset="0.467" stop-color="#eed369"/>
      <stop offset="0.55" stop-color="#e9cd65"/>
      <stop offset="0.653" stop-color="#dbbe5d"/>
      <stop offset="0.767" stop-color="#c3a54e"/>
      <stop offset="0.888" stop-color="#a3823a"/>
      <stop offset="1" stop-color="#805b24"/>
    </linearGradient>
  </defs>
  <g id="Grupo_3991" data-name="Grupo 3991" transform="translate(988.033 -476.088)">
    <path id="Caminho_3134" data-name="Caminho 3134" d="M-853.3,526.105V487.634a11.569,11.569,0,0,0-11.561-11.546h-48.157a11.569,11.569,0,0,0-11.561,11.546v38.471a11.6,11.6,0,0,0,10.392,11.508h50.5A11.6,11.6,0,0,0-853.3,526.105Zm-60.72,8.471a8.619,8.619,0,0,1-7.523-8.471V487.634a8.529,8.529,0,0,1,8.525-8.51h48.157a8.528,8.528,0,0,1,8.525,8.51v38.471a8.619,8.619,0,0,1-7.523,8.471Z" transform="translate(-15.285 0)" fill="url(#linear-gradient)"/>
    <g id="Grupo_3989" data-name="Grupo 3989" transform="translate(-988.033 544.968)">
      <path id="Caminho_3135" data-name="Caminho 3135" d="M-778.292,580.539q6.034,0,6.034,5.1v.8q0,5.1-6.034,5.1H-787.6a.493.493,0,0,1-.493-.493V588.2a.493.493,0,0,1,.493-.493h8.675q1.466,0,1.467-1.274v-.8q0-1.274-1.467-1.274h-3.117q-6.051,0-6.051-5.1t6.051-5.1h9.291a.493.493,0,0,1,.493.493V577.5a.493.493,0,0,1-.493.493h-8.675q-1.45,0-1.45,1.274t1.45,1.274Z" transform="translate(939.868 -568.596)" fill="#76201f"/>
      <path id="Caminho_3136" data-name="Caminho 3136" d="M-977.616,566.827q5.417,0,5.417,6.688a8.328,8.328,0,0,1-.989,4.505.487.487,0,0,0,0,.544,8.332,8.332,0,0,1,.989,4.505q0,6.688-5.417,6.688h-9.925a.492.492,0,0,1-.492-.493V567.32a.492.492,0,0,1,.492-.493Zm-2.5,9.555q2.717,0,2.717-2.867t-2.717-2.866h-2.207a.493.493,0,0,0-.493.493v4.748a.493.493,0,0,0,.493.493Zm0,3.821h-2.207a.493.493,0,0,0-.493.493v4.747a.493.493,0,0,0,.493.493h2.207q2.717,0,2.717-2.866T-980.116,580.2Z" transform="translate(988.033 -566.827)" fill="#b5b4b5"/>
      <path id="Caminho_3137" data-name="Caminho 3137" d="M-957.975,567.32v21.946a.493.493,0,0,1-.493.493H-962.7a.493.493,0,0,1-.493-.493V570.648h-1.25V567.32a.492.492,0,0,1,.493-.493h5.481A.492.492,0,0,1-957.975,567.32Z" transform="translate(982.35 -566.827)" fill="#b5b4b5"/>
      <path id="Caminho_3138" data-name="Caminho 3138" d="M-947.391,580.2a.5.5,0,0,0-.494.542q.494,5.191,3.841,5.191h6.174a.493.493,0,0,1,.493.493v2.837a.493.493,0,0,1-.493.493h-7.425q-7.917,0-7.917-11.465t7.917-11.466h7.425a.493.493,0,0,1,.493.493v2.836a.493.493,0,0,1-.493.493h-6.174q-3.348,0-3.841,5.191a.5.5,0,0,0,.494.542h8.271a.492.492,0,0,1,.493.493v2.836a.492.492,0,0,1-.493.493Z" transform="translate(979.645 -566.827)" fill="#76201f"/>
      <path id="Caminho_3139" data-name="Caminho 3139" d="M-925,582.573l-5.134-7.637a.493.493,0,0,1,.409-.767h4.747a.492.492,0,0,1,.409.218l2.312,3.443a.492.492,0,0,0,.817,0l2.328-3.446a.492.492,0,0,1,.408-.216h4.746a.492.492,0,0,1,.408.767l-5.147,7.636a.493.493,0,0,0,0,.551l5.147,7.635a.493.493,0,0,1-.408.768H-918.7a.491.491,0,0,1-.408-.217l-2.328-3.445a.492.492,0,0,0-.817,0l-2.312,3.443a.493.493,0,0,1-.409.219h-4.747a.493.493,0,0,1-.409-.767l5.133-7.636A.494.494,0,0,0-925,582.573Z" transform="translate(974.105 -568.596)" fill="#76201f"/>
      <path id="Caminho_3140" data-name="Caminho 3140" d="M-895.633,574.169q5.417,0,5.418,6.688v3.981q0,6.688-5.418,6.688h-4.707a.492.492,0,0,0-.493.492v4.589a.493.493,0,0,1-.493.493h-4.215a.493.493,0,0,1-.493-.493l-.016-21.946a.492.492,0,0,1,.492-.493Zm-5.2,13.043a.493.493,0,0,0,.493.493h2.207q2.717,0,2.717-2.866v-3.981q0-2.867-2.717-2.866h-2.207a.492.492,0,0,0-.493.493Z" transform="translate(968.283 -568.596)" fill="#76201f"/>
      <path id="Caminho_3141" data-name="Caminho 3141" d="M-882.46,579.265q0-5.1,5.418-5.1h4.383q6.034,0,6.034,5.1v.8q0,5.1-6.034,5.1h-3.133q-1.451,0-1.451,1.274t1.451,1.274h8.674a.493.493,0,0,1,.493.493v2.837a.493.493,0,0,1-.493.493h-9.291q-6.05,0-6.051-5.494Zm5.217,2.086q.133-.016.833-.016h3.117q1.466,0,1.467-1.274v-.8q0-1.274-1.467-1.274h-2.5q-1.451,0-1.451,1.306Z" transform="translate(962.601 -568.596)" fill="#76201f"/>
      <path id="Caminho_3142" data-name="Caminho 3142" d="M-854.143,591.526h-4.232a.493.493,0,0,1-.493-.493V574.662a.493.493,0,0,1,.493-.493h9.925q5.417,0,5.417,6.688v10.175a.493.493,0,0,1-.494.493l-4.215-.013a.493.493,0,0,1-.491-.493V580.857q0-2.867-2.717-2.866h-2.207a.493.493,0,0,0-.493.493v12.55A.492.492,0,0,1-854.143,591.526Z" transform="translate(956.917 -568.596)" fill="#76201f"/>
      <path id="Caminho_3143" data-name="Caminho 3143" d="M-825.475,580.539q6.034,0,6.033,5.1v.8q0,5.1-6.033,5.1h-9.308a.492.492,0,0,1-.493-.493V588.2a.493.493,0,0,1,.493-.493h8.674q1.467,0,1.467-1.274v-.8q0-1.274-1.467-1.274h-3.117q-6.05,0-6.05-5.1t6.05-5.1h9.292a.492.492,0,0,1,.492.493V577.5a.492.492,0,0,1-.492.493h-8.675q-1.451,0-1.45,1.274t1.45,1.274Z" transform="translate(951.234 -568.596)" fill="#76201f"/>
      <path id="Caminho_3144" data-name="Caminho 3144" d="M-811.685,579.265q0-5.1,5.418-5.1h4.383q6.034,0,6.034,5.1v.8q0,5.1-6.034,5.1h-3.134q-1.449,0-1.45,1.274t1.45,1.274h8.675a.493.493,0,0,1,.493.493v2.837a.493.493,0,0,1-.493.493h-9.291q-6.051,0-6.051-5.494Zm5.217,2.086q.133-.016.833-.016h3.117q1.467,0,1.467-1.274v-.8q0-1.274-1.467-1.274h-2.5q-1.449,0-1.45,1.306Z" transform="translate(945.551 -568.596)" fill="#76201f"/>
    </g>
    <path id="Caminho_3145" data-name="Caminho 3145" d="M-866.769,519.334c-.307-.9-.579-1.807-.81-2.73.863-.947,4.2-.822,5.16-.015l-.888,2.111c.478-.628.638-.885.922-1.236a2.529,2.529,0,0,1,.338.263,1.376,1.376,0,0,1,.523.832.866.866,0,0,1-.241.7l-2.036,2.375a4.55,4.55,0,0,1-.766-.194c.116-.272.256-.572.372-.844l-.742.8a2.78,2.78,0,0,0-1.974.242l-2.067-2.481a.684.684,0,0,1-.178-.444c0-.6.895-1.117,1.364-1.313l1.023,1.939Z" transform="translate(-28.637 -9.6)" fill="#76201f"/>
    <path id="Caminho_3146" data-name="Caminho 3146" d="M-865.372,530.3a1.785,1.785,0,0,1,.638-.319v1.86a1.976,1.976,0,0,1-.653-.357.739.739,0,0,1-.213-.577A.768.768,0,0,1-865.372,530.3Z" transform="translate(-29.494 -12.983)" fill="#76201f"/>
    <path id="Caminho_3147" data-name="Caminho 3147" d="M-862.891,534.715a.8.8,0,0,1,.258.645,1.008,1.008,0,0,1-.266.691,1.327,1.327,0,0,1-.752.395V534.32A2.022,2.022,0,0,1-862.891,534.715Z" transform="translate(-29.964 -14.028)" fill="#76201f"/>
    <path id="Caminho_3148" data-name="Caminho 3148" d="M-859.123,532.023a15.357,15.357,0,0,0-1.192-2.718c-.888-1.594-3.667-5.109-5.39-5.428l.4,1.845-.926-1.883h-.706l-1.336,1.769.919-1.716a8.105,8.105,0,0,0-2.49,1.754c-.288.258-.562.531-.835.827-2.034,2.255-4.266,5.944-3.044,9.041.752,1.921,3.644,1.913,5.511,2.012a32.681,32.681,0,0,0,6.467-.266C-859.1,536.729-858.478,534.452-859.123,532.023Zm-5.078,1.685a2.042,2.042,0,0,1-.759.79,2.718,2.718,0,0,1-1.2.364v.326a1.126,1.126,0,0,1-.061.418c-.03.083-.114.129-.243.129a.275.275,0,0,1-.243-.106.646.646,0,0,1-.068-.334v-.433a2.894,2.894,0,0,1-.987-.266,2.268,2.268,0,0,1-.714-.5,2.179,2.179,0,0,1-.41-.63,1.672,1.672,0,0,1-.137-.645.6.6,0,0,1,.182-.417.612.612,0,0,1,.448-.182.648.648,0,0,1,.372.1.507.507,0,0,1,.2.288c.091.266.167.463.228.607a1.258,1.258,0,0,0,.3.387,1.328,1.328,0,0,0,.516.266v-2.255a5.663,5.663,0,0,1-1.086-.4,1.8,1.8,0,0,1-.706-.622,1.915,1.915,0,0,1-.273-1.048,1.818,1.818,0,0,1,.531-1.359,2.335,2.335,0,0,1,1.533-.622v-.319c0-.273.1-.4.3-.4s.311.129.311.395v.326a3.18,3.18,0,0,1,.888.213,1.729,1.729,0,0,1,.645.486,2.059,2.059,0,0,1,.342.509,1.213,1.213,0,0,1,.114.478.567.567,0,0,1-.175.425.589.589,0,0,1-.433.175.608.608,0,0,1-.615-.516,1.11,1.11,0,0,0-.767-.8v2.019a9.439,9.439,0,0,1,.956.3,1.994,1.994,0,0,1,.638.395,1.812,1.812,0,0,1,.463.63,2.042,2.042,0,0,1,.159.812A2.105,2.105,0,0,1-864.2,533.708Z" transform="translate(-27.454 -11.503)" fill="#76201f"/>
    <path id="Caminho_3149" data-name="Caminho 3149" d="M-865.372,530.3a1.785,1.785,0,0,1,.638-.319v1.86a1.976,1.976,0,0,1-.653-.357.739.739,0,0,1-.213-.577A.768.768,0,0,1-865.372,530.3Z" transform="translate(-29.494 -12.983)" fill="#76201f"/>
    <path id="Caminho_3150" data-name="Caminho 3150" d="M-862.633,535.36a1.008,1.008,0,0,1-.266.691,1.327,1.327,0,0,1-.752.395V534.32a2.022,2.022,0,0,1,.759.395A.8.8,0,0,1-862.633,535.36Z" transform="translate(-29.964 -14.028)" fill="#76201f"/>
    <path id="Caminho_3151" data-name="Caminho 3151" d="M-864.735,529.98v1.86a1.976,1.976,0,0,1-.653-.357.739.739,0,0,1-.213-.577.768.768,0,0,1,.228-.607A1.785,1.785,0,0,1-864.735,529.98Z" transform="translate(-29.494 -12.983)" fill="#76201f"/>
    <path id="Caminho_3152" data-name="Caminho 3152" d="M-862.633,535.36a1.008,1.008,0,0,1-.266.691,1.327,1.327,0,0,1-.752.395V534.32a2.022,2.022,0,0,1,.759.395A.8.8,0,0,1-862.633,535.36Z" transform="translate(-29.964 -14.028)" fill="#76201f"/>
    <g id="Grupo_3990" data-name="Grupo 3990" transform="translate(-922.114 487.634)">
      <path id="Caminho_3153" data-name="Caminho 3153" d="M-884.643,521.323h3.462a.543.543,0,0,1,.541.541v2.921a.543.543,0,0,1-.541.541h-3.462a.543.543,0,0,1-.541-.541v-2.921a.543.543,0,0,1,.541-.541Z" transform="translate(897.338 -498.531)" fill="#76201f"/>
      <path id="Caminho_3154" data-name="Caminho 3154" d="M-899.153,491.3h24.766a2.026,2.026,0,0,1,1.442.6.489.489,0,0,1,.038.04,2.035,2.035,0,0,1,.563,1.4v14.7c-.185-.012-.369-.015-.55-.015-.225,0-.45.009-.673.028V493.341a.8.8,0,0,0-.216-.553l-.025-.025a.814.814,0,0,0-.578-.241h-24.766a.818.818,0,0,0-.578.238l0,0a.809.809,0,0,0-.238.578v33.492a.81.81,0,0,0,.216.553l.025.025a.813.813,0,0,0,.578.241h16.781a6.525,6.525,0,0,0,.244.748,4.146,4.146,0,0,0,.219.475h-17.243a2.026,2.026,0,0,1-1.442-.6l-.037-.04a2.032,2.032,0,0,1-.563-1.4V493.341a2.032,2.032,0,0,1,.6-1.441l0,0a2.032,2.032,0,0,1,1.439-.6Z" transform="translate(901.195 -491.298)" fill="#76201f"/>
      <path id="Caminho_3155" data-name="Caminho 3155" d="M-895.518,496.552h19.707a1.075,1.075,0,0,1,.764.316.339.339,0,0,1,.043.05,1.074,1.074,0,0,1,.273.716v6.159a1.089,1.089,0,0,1-.316.764l0,0a1.076,1.076,0,0,1-.764.316h-19.7a1.078,1.078,0,0,1-.764-.316.383.383,0,0,1-.043-.05,1.076,1.076,0,0,1-.273-.717v-6.159a1.077,1.077,0,0,1,.319-.76l0,0a1.059,1.059,0,0,1,.757-.319Z" transform="translate(900.087 -492.564)" fill="#76201f"/>
      <path id="Caminho_3156" data-name="Caminho 3156" d="M-875.563,498.163h-19.423v5.877h19.426v-5.877Z" transform="translate(899.699 -492.952)" fill="#76201f"/>
      <path id="Caminho_3157" data-name="Caminho 3157" d="M-872.588,499.527h.707v3.806h-.707v-3.806Z" transform="translate(894.304 -493.28)" fill="#76201f"/>
      <path id="Caminho_3158" data-name="Caminho 3158" d="M-894.746,512.176h3.462a.543.543,0,0,1,.541.541v2.921a.543.543,0,0,1-.541.541h-3.462a.543.543,0,0,1-.541-.541v-2.921a.546.546,0,0,1,.541-.541Z" transform="translate(899.772 -496.327)" fill="#76201f"/>
      <path id="Caminho_3159" data-name="Caminho 3159" d="M-894.746,530.47h3.462a.543.543,0,0,1,.541.541v2.921a.542.542,0,0,1-.541.541h-3.462a.543.543,0,0,1-.541-.541v-2.921a.548.548,0,0,1,.541-.541Z" transform="translate(899.772 -500.734)" fill="#76201f"/>
      <path id="Caminho_3160" data-name="Caminho 3160" d="M-894.746,521.323h3.462a.543.543,0,0,1,.541.541v2.921a.543.543,0,0,1-.541.541h-3.462a.543.543,0,0,1-.541-.541v-2.921a.546.546,0,0,1,.541-.541Z" transform="translate(899.772 -498.531)" fill="#76201f"/>
      <path id="Caminho_3161" data-name="Caminho 3161" d="M-874.535,512.176h3.459a.541.541,0,0,1,.538.541v1.7a1.963,1.963,0,0,0-.4.751,4.863,4.863,0,0,0-.679.534,3.655,3.655,0,0,0-.419.479h-2.5a.543.543,0,0,1-.541-.541v-2.921a.537.537,0,0,1,.538-.541Z" transform="translate(894.902 -496.327)" fill="#76201f"/>
      <path id="Caminho_3162" data-name="Caminho 3162" d="M-874.537,521.323h2.3a3.161,3.161,0,0,0,.278.4l0,0,1.1,1.323c-.119.1-.234.206-.347.307l-.225.2,0,.006-.012.01c-.194.172-.36.328-.5.469-.191.187-.35.357-.484.506-.222.247-.448.51-.673.789h-1.451a.544.544,0,0,1-.541-.541v-2.918a.546.546,0,0,1,.544-.541Z" transform="translate(894.904 -498.531)" fill="#76201f"/>
      <path id="Caminho_3163" data-name="Caminho 3163" d="M-884.643,512.176h3.462a.543.543,0,0,1,.541.541v2.921a.543.543,0,0,1-.541.541h-3.462a.543.543,0,0,1-.541-.541v-2.921a.543.543,0,0,1,.541-.541Z" transform="translate(897.338 -496.327)" fill="#76201f"/>
      <path id="Caminho_3164" data-name="Caminho 3164" d="M-884.643,530.47h3.462a.543.543,0,0,1,.541.541v2.921a.542.542,0,0,1-.541.541h-3.462a.543.543,0,0,1-.541-.541v-2.921a.545.545,0,0,1,.541-.541Z" transform="translate(897.338 -500.734)" fill="#76201f"/>
    </g>
  </g>
</svg>
