<svg xmlns="http://www.w3.org/2000/svg" xmlns:xlink="http://www.w3.org/1999/xlink" width="92.127" height="100.042" viewBox="0 0 92.127 100.042">
  <defs>
    <linearGradient id="linear-gradient" y1="0.5" x2="1" y2="0.5" gradientUnits="objectBoundingBox">
      <stop offset="0" stop-color="#a98239"/>
      <stop offset="0.133" stop-color="#c3a555"/>
      <stop offset="0.267" stop-color="#d8c26c"/>
      <stop offset="0.382" stop-color="#e5d47a"/>
      <stop offset="0.467" stop-color="#eadb7f"/>
      <stop offset="0.555" stop-color="#e5d57b"/>
      <stop offset="0.664" stop-color="#d8c670"/>
      <stop offset="0.785" stop-color="#c3ad5e"/>
      <stop offset="0.913" stop-color="#a68a45"/>
      <stop offset="1" stop-color="#8f6e32"/>
    </linearGradient>
    <linearGradient id="linear-gradient-2" x1="0.5" x2="0.5" y2="1" gradientUnits="objectBoundingBox">
      <stop offset="0" stop-color="#a98239"/>
      <stop offset="0" stop-color="#c3a555"/>
      <stop offset="0" stop-color="#a68a45"/>
      <stop offset="0.267" stop-color="#d8c26c"/>
      <stop offset="0.382" stop-color="#e5d47a"/>
      <stop offset="0.467" stop-color="#eadb7f"/>
      <stop offset="0.555" stop-color="#e5d57b"/>
      <stop offset="0.664" stop-color="#d8c670"/>
      <stop offset="0.785" stop-color="#c3ad5e"/>
      <stop offset="1" stop-color="#8f6e32"/>
    </linearGradient>
  </defs>
  <g id="Grupo_3988" data-name="Grupo 3988" transform="translate(-21.035 -8.5)">
    <g id="Grupo_3985" data-name="Grupo 3985" transform="translate(21.035 76.952)">
      <g id="Grupo_3980" data-name="Grupo 3980">
        <path id="Caminho_3120" data-name="Caminho 3120" d="M21.035,97.486a.309.309,0,0,1,.35-.351h12.6a6.313,6.313,0,0,1,2.328.42,5.369,5.369,0,0,1,1.856,1.209,5.68,5.68,0,0,1,1.243,1.908,6.661,6.661,0,0,1,.455,2.521,11.317,11.317,0,0,1-.315,2.993,5.771,5.771,0,0,1-.717,1.68,2.747,2.747,0,0,1-.717.771q-.315.192-.315.3,0,.176.542.735t1.208,1.3a3.776,3.776,0,0,1,.438.735,7.878,7.878,0,0,1,.333.858,4.74,4.74,0,0,1,.192.875,6.516,6.516,0,0,1,.053.753,15.016,15.016,0,0,1-.315,3.15,6.677,6.677,0,0,1-1.1,2.556,5.5,5.5,0,0,1-2.083,1.715,7.522,7.522,0,0,1-3.291.63H21.385a.309.309,0,0,1-.35-.351Zm5.075,9.347a.309.309,0,0,0,.351.35h6.056a2.707,2.707,0,0,0,2-.612,3.192,3.192,0,0,0,.595-2.223,2.457,2.457,0,0,0-.77-2.084,2.952,2.952,0,0,0-1.82-.577H26.461a.309.309,0,0,0-.351.35Zm0,10.5a.309.309,0,0,0,.351.35h7.386a1.5,1.5,0,0,0,.981-.314,2.471,2.471,0,0,0,.629-.788,3.362,3.362,0,0,0,.333-1,5.7,5.7,0,0,0,.088-.911,4.073,4.073,0,0,0-.193-1.348,2.4,2.4,0,0,0-.49-.857,1.607,1.607,0,0,0-.666-.438,2.163,2.163,0,0,0-.683-.123H26.461a.31.31,0,0,0-.351.35Z" transform="translate(-21.035 -97.135)" fill="#c1bfc1"/>
        <path id="Caminho_3121" data-name="Caminho 3121" d="M50.649,121.886V101.862a.31.31,0,0,0-.351-.351h-.945a.309.309,0,0,1-.351-.35V97.486a.31.31,0,0,1,.351-.351h4.726a1.319,1.319,0,0,1,.945.333,1.268,1.268,0,0,1,.351.963v23.455a.31.31,0,0,1-.351.351H51A.309.309,0,0,1,50.649,121.886Z" transform="translate(-27.404 -97.135)" fill="#c1bfc1"/>
      </g>
      <g id="Grupo_3984" data-name="Grupo 3984" transform="translate(30.819 0.29)">
        <g id="Grupo_3981" data-name="Grupo 3981">
          <path id="Caminho_3122" data-name="Caminho 3122" d="M72.78,97.51H60.941l.023,24.366H66.44v-10.4H72.78c4.055,0,6.024-2.286,6.024-6.982S76.835,97.51,72.78,97.51Zm-2.912,10.4H66.44v-6.819h3.429c2.263,0,3.46,1.182,3.46,3.414S72.131,107.905,69.869,107.905Z" transform="translate(-60.941 -97.51)" fill="#81ba27"/>
        </g>
        <g id="Grupo_3982" data-name="Grupo 3982" transform="translate(20.898 6.062)">
          <path id="Caminho_3123" data-name="Caminho 3123" d="M99.122,105.36H88v3.583h10.38c1.653,0,2,.911,2,1.676,0,.8-.348,1.761-2,1.761H94.759c-4.549,0-6.758,1.684-6.758,5.151v.88c0,3.537,2.209,5.252,6.758,5.252h11.1V111.052C105.856,107.221,103.655,105.36,99.122,105.36Zm1.259,14.728h-4.9c-1.637,0-1.985-.911-1.985-1.676v-.865c0-.726.348-1.606,1.985-1.676l4.9-.015Z" transform="translate(-88.001 -105.36)" fill="#81ba27"/>
        </g>
        <g id="Grupo_3983" data-name="Grupo 3983" transform="translate(40.561 6.062)">
          <path id="Caminho_3124" data-name="Caminho 3124" d="M125.841,105.36v14.728h-3.452c-2.247,0-3.437-1.182-3.437-3.406V105.4l-5.491-.015v11.3c0,4.7,1.969,6.982,6.016,6.982h6.364v.293c0,1.4-.595,3.058-3.452,3.058h-6.016V130.6H125.3c4.047,0,6.016-2.286,6.016-6.989V105.36Z" transform="translate(-113.461 -105.36)" fill="#81ba27"/>
        </g>
      </g>
    </g>
    <g id="Grupo_3987" data-name="Grupo 3987" transform="translate(29.996 8.5)">
      <path id="Caminho_3125" data-name="Caminho 3125" d="M103.944,42.275l-3.606-3.7-.008,1.267-.033,3.8-.008.5A1.228,1.228,0,0,1,99.1,45.361a30.838,30.838,0,0,0-3.244.272c-.9.115-1.794.272-2.683.477q-1.333.284-2.643.692a29.719,29.719,0,0,0-11.236,6.256,24.324,24.324,0,0,0-3.935,4.519l-3.868,1.737L51.2,68.418a3.434,3.434,0,0,1-4.536-1.728L32.938,36.1a3.435,3.435,0,0,1,1.728-4.536L85.39,8.8a3.423,3.423,0,0,1,4.536,1.721l11.483,25.6,2.239,4.988A3.508,3.508,0,0,1,103.944,42.275Z" transform="translate(-32.638 -8.5)" fill="url(#linear-gradient)"/>
      <g id="Grupo_3986" data-name="Grupo 3986" transform="translate(4.277 3.936)">
        <path id="Caminho_3126" data-name="Caminho 3126" d="M102.349,21.661l.712-.159L99.513,13.6l-7.905,3.548.426.592A9.988,9.988,0,0,0,102.349,21.661Z" transform="translate(-50.344 -13.596)" fill="#882f2a"/>
        <path id="Caminho_3127" data-name="Caminho 3127" d="M93.3,25.188l-.494.147A12.628,12.628,0,0,1,78.74,19.982l-.278-.432L49.771,32.424l.139.5a12.632,12.632,0,0,1-5.344,14.056l-.44.278,4.4,9.8.494-.139a12.613,12.613,0,0,1,14.056,5.344l.278.44,12.658-5.684,5.213-2.34a27.881,27.881,0,0,1,10.542-5.869,11.949,11.949,0,0,1-.324-2.325A12.639,12.639,0,0,1,97.26,35.274L97.7,35Z" transform="translate(-39.532 -14.952)" fill="#882f2a"/>
        <path id="Caminho_3128" data-name="Caminho 3128" d="M46.242,38.287l-.16-.712-7.905,3.548,3.548,7.906.592-.426A9.988,9.988,0,0,0,46.242,38.287Z" transform="translate(-38.177 -19.056)" fill="#882f2a"/>
        <path id="Caminho_3129" data-name="Caminho 3129" d="M51.891,70.863l-.712.159,3.548,7.905,7.905-3.548-.426-.592A9.986,9.986,0,0,0,51.891,70.863Z" transform="translate(-41.138 -26.58)" fill="#882f2a"/>
        <path id="Caminho_3130" data-name="Caminho 3130" d="M115.665,47.52l-.031,3.56-4.17,1.877c-.842.108-1.684.255-2.518.448l-.023-.093a9.973,9.973,0,0,1,3.923-10.318l.595-.425.131.293Z" transform="translate(-54.23 -20.194)" fill="#882f2a"/>
      </g>
      <path id="Caminho_3131" data-name="Caminho 3131" d="M86.946,38.206A13.176,13.176,0,1,0,80.32,55.621,13.2,13.2,0,0,0,86.946,38.206Z" transform="translate(-39.266 -13.493)" fill="url(#linear-gradient-2)"/>
      <circle id="Elipse_342" data-name="Elipse 342" cx="9.412" cy="9.412" r="9.412" transform="matrix(0.356, -0.935, 0.935, 0.356, 23.515, 35.559)" fill="#882f2a"/>
      <path id="Caminho_3132" data-name="Caminho 3132" d="M76.841,43.989c-1.538.3-1.711-.082-1.794-.266-.182-.406.144-1.1.9-1.437a1.506,1.506,0,0,1,1.655.128l2.2-1.773a4,4,0,0,0-3.634-1.314L75.5,37.844,72.928,39l.673,1.5a3.82,3.82,0,0,0-1.129,4.38c.537,1.195,1.825,2.491,4.917,1.879,1.335-.263,2.056-.132,2.161.1.182.406-.144,1.1-.9,1.436a1.508,1.508,0,0,1-1.656-.128l-2.2,1.773a4,4,0,0,0,3.634,1.314l.665,1.482,2.576-1.156L81,50.083a3.82,3.82,0,0,0,1.129-4.38C81.607,44.547,80.269,43.311,76.841,43.989Z" transform="translate(-41.642 -15.182)" fill="#fff"/>
    </g>
    <path id="Caminho_3133" data-name="Caminho 3133" d="M107.291,54.171a28.865,28.865,0,0,1,3.043-.255,1.152,1.152,0,0,0,1.12-1.151l.008-.471Zm19.423,5.692L112.5,45.251,111.2,43.908a1.172,1.172,0,0,0-1.8.17,1.2,1.2,0,0,0-.193.633l-.054,6.943a34.167,34.167,0,0,0-4.649.649c-.85.178-1.691.394-2.533.641a28.975,28.975,0,0,0-15.43,10.534,24.082,24.082,0,0,0-2.108,3.529,25.024,25.024,0,0,0-2.456,9.244,1.16,1.16,0,0,0,2.062.811C89.2,70.606,99.128,67.6,108.99,69.424l-.07,6.92a1.166,1.166,0,0,0,1.158,1.174,1.152,1.152,0,0,0,.819-.34L126.7,61.5a1.175,1.175,0,0,0,.015-1.637ZM111.268,73.548l.046-5.059a1.151,1.151,0,0,0-.911-1.143,33.833,33.833,0,0,0-7.105-.757c-7.1,0-13.809,2.271-18.5,6.348a21.929,21.929,0,0,1,3.267-7.561,22.817,22.817,0,0,1,3.692-4.24,27.881,27.881,0,0,1,10.542-5.869q1.228-.382,2.479-.649c.834-.193,1.676-.34,2.518-.448a28.865,28.865,0,0,1,3.043-.255,1.152,1.152,0,0,0,1.12-1.151l.008-.471.031-3.56.008-1.189,3.383,3.475,9.376,9.646Z" transform="translate(-13.876 -7.984)" fill="url(#linear-gradient)"/>
  </g>
</svg>
