<svg xmlns="http://www.w3.org/2000/svg" width="153.565" height="34.538" viewBox="0 0 153.565 34.538">
  <g id="Grupo_43" data-name="Grupo 43" transform="translate(0)">
    <path id="Caminho_248" data-name="Caminho 248" d="M274.457,171.271a6.22,6.22,0,0,1-3.73-1.322l.9-1.373a4.923,4.923,0,0,0,2.889,1.086c.864,0,1.363-.362,1.363-.946v-.034c0-.686-.929-.919-1.964-1.24-1.3-.358-2.753-.894-2.753-2.578v-.037c0-1.664,1.381-2.681,3.132-2.681a6.082,6.082,0,0,1,3.238,1l-.8,1.435a5.056,5.056,0,0,0-2.483-.834c-.783,0-1.233.359-1.233.881v.031c0,.638.95.895,1.981,1.233,1.288.4,2.739.98,2.739,2.565v.034c0,1.851-1.435,2.777-3.272,2.777" transform="translate(-124.164 -158.674)" fill="#fff"/>
    <path id="Caminho_243" data-name="Caminho 243" d="M225.066,171.271a6.231,6.231,0,0,1-3.736-1.322l.9-1.373a4.885,4.885,0,0,0,2.882,1.086c.868,0,1.367-.362,1.367-.946v-.034c0-.686-.937-.919-1.967-1.24-1.3-.358-2.754-.894-2.754-2.578v-.037c0-1.664,1.387-2.681,3.136-2.681a6.078,6.078,0,0,1,3.238,1l-.8,1.435a5.078,5.078,0,0,0-2.484-.834c-.785,0-1.233.359-1.233.881v.031c0,.638.943.895,1.982,1.233,1.284.4,2.732.98,2.732,2.565v.034c0,1.851-1.435,2.777-3.266,2.777" transform="translate(-112.77 -158.495)" fill="#fff"/>
    <path id="Caminho_244" data-name="Caminho 244" d="M234.317,159.985h-2.169v-1.92h2.169Zm-.072,10.147h-2.018v-8.8h2.018Z" transform="translate(-115.336 -157.527)" fill="#fff"/>
    <path id="Caminho_245" data-name="Caminho 245" d="M239.28,171.091h-2.018v-8.8h2.018v1.366a3.167,3.167,0,0,1,2.75-1.547c1.984,0,3.135,1.335,3.135,3.385v5.6h-2.021v-5c0-1.363-.683-2.152-1.883-2.152a1.954,1.954,0,0,0-1.981,2.185v4.967" transform="translate(-116.549 -158.486)" fill="#fff"/>
    <path id="Caminho_246" data-name="Caminho 246" d="M253.644,169.638a3.2,3.2,0,0,0,2.381-1.049l1.185,1.049a4.45,4.45,0,0,1-3.6,1.65,4.6,4.6,0,0,1-.219-9.188c2.8,0,4.218,2.206,4.218,4.754l-.031.553H251.11a2.464,2.464,0,0,0,2.534,2.23m1.964-3.569a2.286,2.286,0,0,0-2.233-2.316,2.384,2.384,0,0,0-2.285,2.316Z" transform="translate(-119.355 -158.484)" fill="#fff"/>
    <path id="Caminho_247" data-name="Caminho 247" d="M264.622,171.271a6.244,6.244,0,0,1-3.736-1.322l.9-1.373a4.9,4.9,0,0,0,2.883,1.086c.867,0,1.369-.362,1.369-.946v-.034c0-.686-.935-.919-1.967-1.24-1.3-.358-2.753-.894-2.753-2.578v-.037c0-1.664,1.383-2.681,3.132-2.681a6.066,6.066,0,0,1,3.238,1l-.8,1.435a5.071,5.071,0,0,0-2.487-.834c-.786,0-1.233.359-1.233.881v.031c0,.638.95.895,1.981,1.233,1.288.4,2.743.98,2.743,2.565v.034c0,1.851-1.442,2.777-3.276,2.777" transform="translate(-122.153 -158.495)" fill="#fff"/>
    <path id="Caminho_250" data-name="Caminho 250" d="M231.53,197.555v-8.176c0-1.967-.929-2.979-2.514-2.979s-2.6,1.011-2.6,2.979v8.176h-4.156V182.9h4.156v2.082a5.212,5.212,0,0,1,4.3-2.359c3.149,0,4.976,2.085,4.976,5.446v9.488H231.53" transform="translate(-112.99 -163.352)" fill="#f0ad00"/>
    <path id="Caminho_251" data-name="Caminho 251" d="M256.566,191.682H246.361a3.4,3.4,0,0,0,3.587,2.87,4.806,4.806,0,0,0,3.552-1.5l2.381,2.1a7.742,7.742,0,0,1-13.649-4.837v-.047c0-4.195,2.982-7.642,7.247-7.642,4.9,0,7.143,3.8,7.143,7.963v.048c0,.41-.03.655-.056,1.045m-7.087-5.717c-1.721,0-2.841,1.229-3.169,3.114h6.264C252.325,187.221,251.235,185.965,249.479,185.965Z" transform="translate(-117.728 -163.353)" fill="#f0ad00"/>
    <path id="Caminho_241" data-name="Caminho 241" d="M204.715,161.574a2.77,2.77,0,0,1-1.664,2.616,2.866,2.866,0,0,1,2.32,2.848c0,2.1-1.718,3.214-4.32,3.214h-5.4V158.585h5.237c2.35,0,3.828,1.151,3.828,2.989m-2.049.335c0-.96-.731-1.5-2.046-1.5h-2.951v3.1h2.8C201.781,163.507,202.666,162.984,202.666,161.908Zm.652,4.911c0-1-.789-1.584-2.4-1.584h-3.249v3.2h3.4C202.468,168.439,203.318,167.893,203.318,166.819Z" transform="translate(-106.537 -158.131)" fill="#fff"/>
    <path id="Caminho_242" data-name="Caminho 242" d="M215.566,162.342h2.016v8.8h-2.016v-1.366a3.176,3.176,0,0,1-2.752,1.551c-1.985,0-3.139-1.336-3.139-3.381v-5.608H211.7v5.007c0,1.359.683,2.152,1.886,2.152a1.963,1.963,0,0,0,1.984-2.186v-4.973" transform="translate(-109.863 -159.022)" fill="#fff"/>
    <path id="Caminho_249" data-name="Caminho 249" d="M203.535,196.481a9.812,9.812,0,0,1-10.15-9.851v-.055a10.183,10.183,0,0,1,20.357-.054v.054a9.908,9.908,0,0,1-10.206,9.906m5.8-9.906a5.816,5.816,0,0,0-5.8-6.016,5.724,5.724,0,0,0-5.745,5.962v.054a5.816,5.816,0,0,0,5.8,6.018,5.726,5.726,0,0,0,5.745-5.964Z" transform="translate(-105.999 -162.423)" fill="#f0ad00"/>
    <path id="Caminho_252" data-name="Caminho 252" d="M189.651,162.462a3.887,3.887,0,1,1-3.821-3.877,3.9,3.9,0,0,1,3.821,3.877m-6.889,0a3,3,0,1,0,3.04-3.019A3.011,3.011,0,0,0,182.762,162.462Zm1.24-2.134h2c1.243,0,1.8.338,1.8,1.1a.9.9,0,0,1-.762.96c.485.15.664.359.664.732v.488c0,.607.024.731.2.86h-1.26l-.13-.506v-.608c0-.41-.126-.509-.608-.509H185.2v1.622H184ZM186.208,162l.4-.4-.4-.43H185.2V162Z" transform="translate(-103.082 -145.469)" fill="#fff"/>
    <path id="Caminho_240" data-name="Caminho 240" d="M142.189,174.011h-2.36V165.4h2.36c3.139,0,5.645,1.045,5.645,4.272,0,3.3-2.507,4.341-5.645,4.341m-25.337,6.167a9.729,9.729,0,0,1-3.433-.615l3.39-10.7h.074l3.324,10.729A9.872,9.872,0,0,1,116.852,180.178Zm24.7-21.769H130.866v25.417l-9.345-25.417h-9.254l-7.983,21.25c-.841-5.353-6.39-7.2-10.753-8.6-2.889-.919-5.94-2.3-5.912-3.791.022-1.227,1.645-2.375,4.841-2.207a17.531,17.531,0,0,1,7.823,2.111L104,160.7a29.061,29.061,0,0,0-12.112-2.876h-.027c-4.551,0-8.342,1.486-10.7,3.914a9.052,9.052,0,0,0-2.556,6.23,8.363,8.363,0,0,0,3.671,7.473,24.963,24.963,0,0,0,7.272,3.325c2.966.915,5.389,1.722,5.36,3.436a2.453,2.453,0,0,1-.7,1.661,4.7,4.7,0,0,1-3.441,1.086c-3.037.054-5.282-.416-8.86-2.528l-3.3,6.551a24.724,24.724,0,0,0,12.1,3.225h.551a14.611,14.611,0,0,0,9.21-3.1l.388-.328-1.071,2.863h9.714l1.629-4.96a18.414,18.414,0,0,0,11.28.048l1.574,4.912h15.839V181.366h3.456c8.358,0,13.3-4.243,13.3-11.376C156.585,162.043,151.79,158.408,141.557,158.408Z" transform="translate(-78.608 -157.828)" fill="#fff" fill-rule="evenodd"/>
  </g>
</svg>
