<svg xmlns="http://www.w3.org/2000/svg" xmlns:xlink="http://www.w3.org/1999/xlink" width="132.501" height="78.357" viewBox="0 0 132.501 78.357">
  <defs>
    <linearGradient id="linear-gradient" x1="0.5" y1="1" x2="0.5" gradientUnits="objectBoundingBox">
      <stop offset="0" stop-color="#2063ae"/>
      <stop offset="1" stop-color="#24a3dc"/>
    </linearGradient>
  </defs>
  <g id="Grupo_3839" data-name="Grupo 3839" transform="translate(0)">
    <path id="Caminho_2540" data-name="Caminho 2540" d="M585.212,115.212l63.224,13.39-73.28,32.142-59.221-13.408Z" transform="translate(-515.935 -98.956)" fill="#b4b4b3"/>
    <path id="Caminho_2541" data-name="Caminho 2541" d="M564.68,153.339H515.935v-48.38h97.491Z" transform="translate(-515.935 -104.959)" fill="url(#linear-gradient)"/>
    <path id="Caminho_2542" data-name="Caminho 2542" d="M586.761,123.866h48.746v48.38h-97.49Z" transform="translate(-503.006 -93.889)" fill="#0fa1d9"/>
    <path id="Caminho_2543" data-name="Caminho 2543" d="M561.622,141.154a21.018,21.018,0,0,1,3.444-.238,5.415,5.415,0,0,1,3.453.912,3.261,3.261,0,0,1,1.2,2.61,3.553,3.553,0,0,1-1.03,2.671,5.261,5.261,0,0,1-3.666,1.2,5.948,5.948,0,0,1-.869-.057v4.04h-2.529Zm2.529,5.118a3.818,3.818,0,0,0,.847.068c1.356,0,2.192-.686,2.192-1.83,0-1.039-.711-1.657-2-1.657a5.09,5.09,0,0,0-1.04.084Z" transform="translate(-489.185 -83.906)" fill="#fff"/>
    <path id="Caminho_2544" data-name="Caminho 2544" d="M572.714,151.183l-.149-.815h-.054a2.936,2.936,0,0,1-2.34,1,2.5,2.5,0,0,1-2.649-2.507c0-2.136,1.909-3.147,4.808-3.142v-.1c0-.436-.234-1.059-1.5-1.056a2.568,2.568,0,0,0-1.928,1.055l-.858-1.113a4.744,4.744,0,0,1,3.245-1.7c2.728,0,3.591,1.613,3.591,3.537V149.2a11.9,11.9,0,0,0,.13,1.985Zm-.308-3.875c-1.34-.008-2.377.315-2.377,1.291a.918.918,0,0,0,1.011.982,1.386,1.386,0,0,0,1.316-.942,1.552,1.552,0,0,0,.05-.435Z" transform="translate(-485.73 -82.801)" fill="#fff"/>
    <path id="Caminho_2545" data-name="Caminho 2545" d="M573.107,145.69c0-1.2-.022-2-.068-2.7h2.19l.093,1.516h.062a2.4,2.4,0,0,1,2.212-1.7,2.21,2.21,0,0,1,.544.048v2.4a3.153,3.153,0,0,0-.688-.071,1.641,1.641,0,0,0-1.747,1.294,3.1,3.1,0,0,0-.046.568v4.146h-2.552Z" transform="translate(-482.5 -82.801)" fill="#fff"/>
    <path id="Caminho_2546" data-name="Caminho 2546" d="M580.427,141.446v2.339h1.834v1.879h-1.834v2.968c0,.99.245,1.444,1,1.444a3.394,3.394,0,0,0,.758-.076l.019,1.936a5.361,5.361,0,0,1-1.649.219,2.666,2.666,0,0,1-1.922-.712,3.364,3.364,0,0,1-.7-2.427v-3.352h-1.088v-1.879h1.088v-2.339Z" transform="translate(-480.271 -83.596)" fill="#fff"/>
    <path id="Caminho_2547" data-name="Caminho 2547" d="M581.21,145.607c0-1.021-.031-1.884-.066-2.618h2.209l.118,1.135h.053a2.97,2.97,0,0,1,2.533-1.321c1.673,0,2.933,1.116,2.933,3.529v4.85h-2.553v-4.542c0-1.056-.376-1.777-1.295-1.777a1.377,1.377,0,0,0-1.292.962,1.817,1.817,0,0,0-.089.629v4.728H581.21Z" transform="translate(-477.755 -82.801)" fill="#fff"/>
    <path id="Caminho_2548" data-name="Caminho 2548" d="M589.5,147.9c.075,1.057,1.119,1.56,2.308,1.56a5.192,5.192,0,0,0,1.961-.615l.8,1.291a5.474,5.474,0,0,1-3.135,1.219c-2.776,0-4.371-1.617-4.371-4.171a4.114,4.114,0,0,1,4.13-4.384c2.656,0,3.659,2.064,3.659,4.092a4.96,4.96,0,0,1-.09,1.008Zm2.99-1.746a1.479,1.479,0,0,0-1.43-1.66,1.688,1.688,0,0,0-1.583,1.66Z" transform="translate(-474.285 -82.801)" fill="#fff"/>
    <path id="Caminho_2549" data-name="Caminho 2549" d="M592.963,145.69c0-1.2-.022-2-.069-2.7h2.19l.093,1.516h.062a2.4,2.4,0,0,1,2.212-1.7,2.236,2.236,0,0,1,.546.048v2.4a3.186,3.186,0,0,0-.69-.071,1.638,1.638,0,0,0-1.745,1.294,2.985,2.985,0,0,0-.048.568v4.146h-2.551Z" transform="translate(-470.875 -82.801)" fill="#fff"/>
    <path id="Caminho_2550" data-name="Caminho 2550" d="M519.669,132.382c2,.977,4.091,2.251,7.506,2.251,2.8,0,4.214-.888,4.214-2.4,0-1.286-1.375-2.129-5.013-3.15-5.1-1.419-9.317-4.037-9.317-9.228,0-5.411,4.882-9.4,12.644-9.4,4.082,0,7.562,1.676,9.869,2.651l-3.353,5.657a14.755,14.755,0,0,0-6.65-1.609c-2.485,0-3.9.8-3.9,2.085,0,1.6,1.907,2.129,5.811,3.371,5.812,1.863,8.562,4.658,8.562,9.183,0,5.013-3.948,9.627-13.484,9.627-3.948,0-8.052-1.847-9.96-2.824Z" transform="translate(-515.548 -101.741)" fill="#fff"/>
    <path id="Caminho_2551" data-name="Caminho 2551" d="M546.288,111.043s5.68.013,10.959.013c4.479,0,6.657.888,8.744,2.4a8.938,8.938,0,0,1,3.637,7.363,9.495,9.495,0,0,1-2.928,7.276c-2.573,2.263-5.239,3.284-9.852,3.284-.932,0-1.73-.089-2.263-.133v9.3h-8.3Zm8.3,13.854a12.3,12.3,0,0,0,2.174.133c3.239,0,5.547-1.465,5.547-4.17,0-2.175-1.643-3.594-4.971-3.594a15.559,15.559,0,0,0-2.75.178Z" transform="translate(-498.163 -101.397)" fill="#fff"/>
    <path id="Caminho_2552" data-name="Caminho 2552" d="M548.253,110.793H539.6l-4.47,12.827c0,.011,0,.011-.011.022l-.368,1.062-5.565,15.99h8.326l1.184-4.5a14.028,14.028,0,0,0,5.028.882,13.811,13.811,0,0,0,5.207-.961l1.4,4.582h8.334ZM541.471,126.9l.57-2.212c.4-1.419.771-3.139,1.162-4.671.089-.334.166-.648.257-.961h.089c.09.3.19.626.29.95.458,1.53.95,3.252,1.4,4.638l.649,2.245.905,3.141a15.215,15.215,0,0,1-6.134,0Z" transform="translate(-508.174 -101.543)" fill="#fff"/>
    <path id="Caminho_2553" data-name="Caminho 2553" d="M542.556,126.981a15.207,15.207,0,0,1-6.134,0l.815-3.13.57-2.212c.4-1.419.771-3.139,1.163-4.671.088-.335.167-.648.256-.961h.089c.09.3.19.626.29.95.458,1.53.95,3.252,1.4,4.638l.649,2.245Z" transform="translate(-503.94 -98.49)" fill="none"/>
    <path id="Caminho_2554" data-name="Caminho 2554" d="M533.255,155.387v-2.781h-.992v-.566h2.66v.566h-.991v2.781Z" transform="translate(-506.375 -77.393)" fill="#231f20"/>
    <path id="Caminho_2555" data-name="Caminho 2555" d="M534.21,155.387V152.04h1.011l.609,2.283.6-2.283h1.013v3.347h-.626v-2.635l-.664,2.635H535.5l-.661-2.635v2.635Z" transform="translate(-505.234 -77.393)" fill="#231f20"/>
  </g>
</svg>
