<svg id="Flag_of_the_United_States" xmlns="http://www.w3.org/2000/svg" width="46.117" height="24.27" viewBox="0 0 46.117 24.27">
  <g id="Grupo_3893" data-name="Grupo 3893" transform="translate(0 0)">
    <rect id="Retângulo_1034" data-name="Retângulo 1034" width="46.117" height="1.865" transform="translate(0 22.406)" fill="#c40d3c"/>
    <rect id="Retângulo_1035" data-name="Retângulo 1035" width="46.117" height="1.865" transform="translate(0 20.541)" fill="#fff"/>
    <rect id="Retângulo_1036" data-name="Retângulo 1036" width="46.117" height="1.865" transform="translate(0 18.669)" fill="#c40d3c"/>
    <rect id="Retângulo_1037" data-name="Retângulo 1037" width="46.117" height="1.865" transform="translate(0 16.804)" fill="#fff"/>
    <rect id="Retângulo_1038" data-name="Retângulo 1038" width="46.117" height="1.865" transform="translate(0 14.94)" fill="#c40d3c"/>
    <rect id="Retângulo_1039" data-name="Retângulo 1039" width="46.117" height="1.865" transform="translate(0 13.067)" fill="#fff"/>
    <rect id="Retângulo_1040" data-name="Retângulo 1040" width="46.117" height="1.865" transform="translate(0 11.203)" fill="#c40d3c"/>
    <rect id="Retângulo_1041" data-name="Retângulo 1041" width="46.117" height="1.865" transform="translate(0 9.338)" fill="#fff"/>
    <rect id="Retângulo_1042" data-name="Retângulo 1042" width="46.117" height="1.865" transform="translate(0 7.466)" fill="#c40d3c"/>
    <rect id="Retângulo_1043" data-name="Retângulo 1043" width="46.117" height="1.865" transform="translate(0 5.601)" fill="#fff"/>
    <rect id="Retângulo_1044" data-name="Retângulo 1044" width="46.117" height="1.865" transform="translate(0 3.737)" fill="#c40d3c"/>
    <rect id="Retângulo_1045" data-name="Retângulo 1045" width="46.117" height="1.865" transform="translate(0 1.865)" fill="#fff"/>
    <rect id="Retângulo_1046" data-name="Retângulo 1046" width="46.117" height="1.865" fill="#c40d3c"/>
    <rect id="Retângulo_1047" data-name="Retângulo 1047" width="46.117" height="24.27" fill="none"/>
  </g>
  <g id="Grupo_3950" data-name="Grupo 3950" transform="translate(0 0)">
    <rect id="Retângulo_1048" data-name="Retângulo 1048" width="18.45" height="13.067" fill="#011e41"/>
    <g id="Grupo_3949" data-name="Grupo 3949" transform="translate(0.823 0.566)">
      <g id="Grupo_3900" data-name="Grupo 3900" transform="translate(0 0)">
        <g id="Grupo_3894" data-name="Grupo 3894" transform="translate(15.377)">
          <path id="Caminho_3013" data-name="Caminho 3013" d="M216.41,6.5l.166.521.544-.008-.438.325.166.513-.438-.317-.438.317.174-.513-.445-.325.544.008Z" transform="translate(-215.7 -6.5)" fill="#fff"/>
        </g>
        <g id="Grupo_3895" data-name="Grupo 3895" transform="translate(12.297)">
          <path id="Caminho_3014" data-name="Caminho 3014" d="M175.61,6.5l.166.521.551-.008-.445.325.174.513-.445-.317-.438.317.174-.513-.445-.325.544.008Z" transform="translate(-174.9 -6.5)" fill="#fff"/>
        </g>
        <g id="Grupo_3896" data-name="Grupo 3896" transform="translate(9.225)">
          <path id="Caminho_3015" data-name="Caminho 3015" d="M134.91,6.5l.166.521.544-.008-.438.325.166.513-.438-.317-.438.317.166-.513-.438-.325.544.008Z" transform="translate(-134.2 -6.5)" fill="#fff"/>
        </g>
        <g id="Grupo_3897" data-name="Grupo 3897" transform="translate(6.152)">
          <path id="Caminho_3016" data-name="Caminho 3016" d="M94.21,6.5l.166.521.544-.008-.438.325.166.513-.438-.317-.438.317.166-.513L93.5,7.013l.544.008Z" transform="translate(-93.5 -6.5)" fill="#fff"/>
        </g>
        <g id="Grupo_3898" data-name="Grupo 3898" transform="translate(3.08)">
          <path id="Caminho_3017" data-name="Caminho 3017" d="M53.51,6.5l.166.521.544-.008-.438.325.166.513-.438-.317-.445.317.174-.513L52.8,7.013l.544.008Z" transform="translate(-52.8 -6.5)" fill="#fff"/>
        </g>
        <g id="Grupo_3899" data-name="Grupo 3899">
          <path id="Caminho_3018" data-name="Caminho 3018" d="M12.71,6.5l.166.521.544-.008-.438.325.166.513-.438-.317-.438.317.166-.513L12,7.013l.544.008Z" transform="translate(-12 -6.5)" fill="#fff"/>
        </g>
      </g>
      <g id="Grupo_3907" data-name="Grupo 3907" transform="translate(0 2.612)">
        <g id="Grupo_3901" data-name="Grupo 3901" transform="translate(15.377 0)">
          <path id="Caminho_3019" data-name="Caminho 3019" d="M216.41,41.1l.166.521h.544l-.438.317.166.521-.438-.325-.438.325.174-.521-.445-.317h.544Z" transform="translate(-215.7 -41.1)" fill="#fff"/>
        </g>
        <g id="Grupo_3902" data-name="Grupo 3902" transform="translate(12.297 0)">
          <path id="Caminho_3020" data-name="Caminho 3020" d="M175.61,41.1l.166.521h.551l-.445.317.174.521-.445-.325-.438.325.174-.521-.445-.317h.544Z" transform="translate(-174.9 -41.1)" fill="#fff"/>
        </g>
        <g id="Grupo_3903" data-name="Grupo 3903" transform="translate(9.225 0)">
          <path id="Caminho_3021" data-name="Caminho 3021" d="M134.91,41.1l.166.521h.544l-.438.317.166.521-.438-.325-.438.325.166-.521-.438-.317h.544Z" transform="translate(-134.2 -41.1)" fill="#fff"/>
        </g>
        <g id="Grupo_3904" data-name="Grupo 3904" transform="translate(6.152 0)">
          <path id="Caminho_3022" data-name="Caminho 3022" d="M94.21,41.1l.166.521h.544l-.438.317.166.521-.438-.325-.438.325.166-.521-.438-.317h.544Z" transform="translate(-93.5 -41.1)" fill="#fff"/>
        </g>
        <g id="Grupo_3905" data-name="Grupo 3905" transform="translate(3.08 0)">
          <path id="Caminho_3023" data-name="Caminho 3023" d="M53.51,41.1l.166.521h.544l-.438.317.166.521-.438-.325-.445.325.174-.521-.438-.317h.544Z" transform="translate(-52.8 -41.1)" fill="#fff"/>
        </g>
        <g id="Grupo_3906" data-name="Grupo 3906" transform="translate(0 0)">
          <path id="Caminho_3024" data-name="Caminho 3024" d="M12.71,41.1l.166.521h.544l-.438.317.166.521-.438-.325-.438.325.166-.521L12,41.621h.544Z" transform="translate(-12 -41.1)" fill="#fff"/>
        </g>
      </g>
      <g id="Grupo_3914" data-name="Grupo 3914" transform="translate(0 5.231)">
        <g id="Grupo_3908" data-name="Grupo 3908" transform="translate(15.377)">
          <path id="Caminho_3025" data-name="Caminho 3025" d="M216.41,75.8l.166.521.544-.008-.438.325.166.513-.438-.317-.438.317.174-.513-.445-.325.544.008Z" transform="translate(-215.7 -75.8)" fill="#fff"/>
        </g>
        <g id="Grupo_3909" data-name="Grupo 3909" transform="translate(12.297)">
          <path id="Caminho_3026" data-name="Caminho 3026" d="M175.61,75.8l.166.521.551-.008-.445.325.174.513-.445-.317-.438.317.174-.513-.445-.325.544.008Z" transform="translate(-174.9 -75.8)" fill="#fff"/>
        </g>
        <g id="Grupo_3910" data-name="Grupo 3910" transform="translate(9.225)">
          <path id="Caminho_3027" data-name="Caminho 3027" d="M134.91,75.8l.166.521.544-.008-.438.325.166.513-.438-.317-.438.317.166-.513-.438-.325.544.008Z" transform="translate(-134.2 -75.8)" fill="#fff"/>
        </g>
        <g id="Grupo_3911" data-name="Grupo 3911" transform="translate(6.152)">
          <path id="Caminho_3028" data-name="Caminho 3028" d="M94.21,75.8l.166.521.544-.008-.438.325.166.513-.438-.317-.438.317.166-.513-.438-.325.544.008Z" transform="translate(-93.5 -75.8)" fill="#fff"/>
        </g>
        <g id="Grupo_3912" data-name="Grupo 3912" transform="translate(3.08)">
          <path id="Caminho_3029" data-name="Caminho 3029" d="M53.51,75.8l.166.521.544-.008-.438.325.166.513-.438-.317-.445.317.174-.513-.438-.325.544.008Z" transform="translate(-52.8 -75.8)" fill="#fff"/>
        </g>
        <g id="Grupo_3913" data-name="Grupo 3913">
          <path id="Caminho_3030" data-name="Caminho 3030" d="M12.71,75.8l.166.521.544-.008-.438.325.166.513-.438-.317-.438.317.166-.513L12,76.313l.544.008Z" transform="translate(-12 -75.8)" fill="#fff"/>
        </g>
      </g>
      <g id="Grupo_3921" data-name="Grupo 3921" transform="translate(0 7.851)">
        <g id="Grupo_3915" data-name="Grupo 3915" transform="translate(15.377)">
          <path id="Caminho_3031" data-name="Caminho 3031" d="M216.41,110.5l.166.513h.544l-.438.317.166.521-.438-.325-.438.325.174-.521-.445-.317h.544Z" transform="translate(-215.7 -110.5)" fill="#fff"/>
        </g>
        <g id="Grupo_3916" data-name="Grupo 3916" transform="translate(12.297)">
          <path id="Caminho_3032" data-name="Caminho 3032" d="M175.61,110.5l.166.513h.551l-.445.317.174.521-.445-.325-.438.325.174-.521-.445-.317h.544Z" transform="translate(-174.9 -110.5)" fill="#fff"/>
        </g>
        <g id="Grupo_3917" data-name="Grupo 3917" transform="translate(9.225)">
          <path id="Caminho_3033" data-name="Caminho 3033" d="M134.91,110.5l.166.513h.544l-.438.317.166.521-.438-.325-.438.325.166-.521-.438-.317h.544Z" transform="translate(-134.2 -110.5)" fill="#fff"/>
        </g>
        <g id="Grupo_3918" data-name="Grupo 3918" transform="translate(6.152)">
          <path id="Caminho_3034" data-name="Caminho 3034" d="M94.21,110.5l.166.513h.544l-.438.317.166.521-.438-.325-.438.325.166-.521-.438-.317h.544Z" transform="translate(-93.5 -110.5)" fill="#fff"/>
        </g>
        <g id="Grupo_3919" data-name="Grupo 3919" transform="translate(3.08)">
          <path id="Caminho_3035" data-name="Caminho 3035" d="M53.51,110.5l.166.513h.544l-.438.317.166.521-.438-.325-.445.325.174-.521-.438-.317h.544Z" transform="translate(-52.8 -110.5)" fill="#fff"/>
        </g>
        <g id="Grupo_3920" data-name="Grupo 3920">
          <path id="Caminho_3036" data-name="Caminho 3036" d="M12.71,110.5l.166.513h.544l-.438.317.166.521-.438-.325-.438.325.166-.521L12,111.013h.544Z" transform="translate(-12 -110.5)" fill="#fff"/>
        </g>
      </g>
      <g id="Grupo_3928" data-name="Grupo 3928" transform="translate(0 10.463)">
        <g id="Grupo_3922" data-name="Grupo 3922" transform="translate(15.377)">
          <path id="Caminho_3037" data-name="Caminho 3037" d="M216.41,145.1l.166.513h.544l-.438.317.166.521-.438-.325-.438.325.174-.521-.445-.317h.544Z" transform="translate(-215.7 -145.1)" fill="#fff"/>
        </g>
        <g id="Grupo_3923" data-name="Grupo 3923" transform="translate(12.297)">
          <path id="Caminho_3038" data-name="Caminho 3038" d="M175.61,145.1l.166.513h.551l-.445.317.174.521-.445-.325-.438.325.174-.521-.445-.317h.544Z" transform="translate(-174.9 -145.1)" fill="#fff"/>
        </g>
        <g id="Grupo_3924" data-name="Grupo 3924" transform="translate(9.225)">
          <path id="Caminho_3039" data-name="Caminho 3039" d="M134.91,145.1l.166.513h.544l-.438.317.166.521-.438-.325-.438.325.166-.521-.438-.317h.544Z" transform="translate(-134.2 -145.1)" fill="#fff"/>
        </g>
        <g id="Grupo_3925" data-name="Grupo 3925" transform="translate(6.152)">
          <path id="Caminho_3040" data-name="Caminho 3040" d="M94.21,145.1l.166.513h.544l-.438.317.166.521-.438-.325-.438.325.166-.521-.438-.317h.544Z" transform="translate(-93.5 -145.1)" fill="#fff"/>
        </g>
        <g id="Grupo_3926" data-name="Grupo 3926" transform="translate(3.08)">
          <path id="Caminho_3041" data-name="Caminho 3041" d="M53.51,145.1l.166.513h.544l-.438.317.166.521-.438-.325-.445.325.174-.521-.438-.317h.544Z" transform="translate(-52.8 -145.1)" fill="#fff"/>
        </g>
        <g id="Grupo_3927" data-name="Grupo 3927">
          <path id="Caminho_3042" data-name="Caminho 3042" d="M12.71,145.1l.166.513h.544l-.438.317.166.521-.438-.325-.438.325.166-.521L12,145.613h.544Z" transform="translate(-12 -145.1)" fill="#fff"/>
        </g>
      </g>
      <g id="Grupo_3929" data-name="Grupo 3929" transform="translate(13.845 1.314)">
        <path id="Caminho_3043" data-name="Caminho 3043" d="M196.11,23.9l.166.513h.544l-.438.325.166.513-.438-.317-.438.317.166-.513-.438-.325h.544Z" transform="translate(-195.4 -23.9)" fill="#fff"/>
      </g>
      <g id="Grupo_3930" data-name="Grupo 3930" transform="translate(10.772 1.314)">
        <path id="Caminho_3044" data-name="Caminho 3044" d="M155.41,23.9l.166.513h.544l-.445.325.174.513-.438-.317-.445.317.174-.513-.438-.325h.544Z" transform="translate(-154.7 -23.9)" fill="#fff"/>
      </g>
      <g id="Grupo_3931" data-name="Grupo 3931" transform="translate(7.692 1.314)">
        <path id="Caminho_3045" data-name="Caminho 3045" d="M114.61,23.9l.174.513h.544l-.445.325.174.513-.445-.317-.438.317.174-.513-.445-.325h.544Z" transform="translate(-113.9 -23.9)" fill="#fff"/>
      </g>
      <g id="Grupo_3932" data-name="Grupo 3932" transform="translate(4.62 1.314)">
        <path id="Caminho_3046" data-name="Caminho 3046" d="M73.91,23.9l.166.513h.544l-.438.325.166.513-.438-.317-.438.317.166-.513-.438-.325h.544Z" transform="translate(-73.2 -23.9)" fill="#fff"/>
      </g>
      <g id="Grupo_3933" data-name="Grupo 3933" transform="translate(1.54 1.314)">
        <path id="Caminho_3047" data-name="Caminho 3047" d="M33.11,23.9l.166.513h.551l-.445.325.174.513-.445-.317-.438.317.174-.513-.445-.325h.544Z" transform="translate(-32.4 -23.9)" fill="#fff"/>
      </g>
      <g id="Grupo_3934" data-name="Grupo 3934" transform="translate(13.845 3.925)">
        <path id="Caminho_3048" data-name="Caminho 3048" d="M196.11,58.5l.166.521h.544l-.438.317.166.521-.438-.325-.438.325.166-.521-.438-.317h.544Z" transform="translate(-195.4 -58.5)" fill="#fff"/>
      </g>
      <g id="Grupo_3935" data-name="Grupo 3935" transform="translate(10.772 3.925)">
        <path id="Caminho_3049" data-name="Caminho 3049" d="M155.41,58.5l.166.521h.544l-.445.317.174.521-.438-.325-.445.325.174-.521-.438-.317h.544Z" transform="translate(-154.7 -58.5)" fill="#fff"/>
      </g>
      <g id="Grupo_3936" data-name="Grupo 3936" transform="translate(7.692 3.925)">
        <path id="Caminho_3050" data-name="Caminho 3050" d="M114.61,58.5l.174.521h.544l-.445.317.174.521-.445-.325-.438.325.174-.521-.445-.317h.544Z" transform="translate(-113.9 -58.5)" fill="#fff"/>
      </g>
      <g id="Grupo_3937" data-name="Grupo 3937" transform="translate(4.62 3.925)">
        <path id="Caminho_3051" data-name="Caminho 3051" d="M73.91,58.5l.166.521h.544l-.438.317.166.521-.438-.325-.438.325.166-.521-.438-.317h.544Z" transform="translate(-73.2 -58.5)" fill="#fff"/>
      </g>
      <g id="Grupo_3938" data-name="Grupo 3938" transform="translate(1.54 3.925)">
        <path id="Caminho_3052" data-name="Caminho 3052" d="M33.11,58.5l.166.521h.551l-.445.317.174.521-.445-.325-.438.325.174-.521-.445-.317h.544Z" transform="translate(-32.4 -58.5)" fill="#fff"/>
      </g>
      <g id="Grupo_3939" data-name="Grupo 3939" transform="translate(13.845 6.545)">
        <path id="Caminho_3053" data-name="Caminho 3053" d="M196.11,93.2l.166.513h.544l-.438.325.166.513-.438-.317-.438.317.166-.513-.438-.325h.544Z" transform="translate(-195.4 -93.2)" fill="#fff"/>
      </g>
      <g id="Grupo_3940" data-name="Grupo 3940" transform="translate(10.772 6.545)">
        <path id="Caminho_3054" data-name="Caminho 3054" d="M155.41,93.2l.166.513h.544l-.445.325.174.513-.438-.317-.445.317.174-.513-.438-.325h.544Z" transform="translate(-154.7 -93.2)" fill="#fff"/>
      </g>
      <g id="Grupo_3941" data-name="Grupo 3941" transform="translate(7.692 6.545)">
        <path id="Caminho_3055" data-name="Caminho 3055" d="M114.61,93.2l.174.513h.544l-.445.325.174.513-.445-.317-.438.317.174-.513-.445-.325h.544Z" transform="translate(-113.9 -93.2)" fill="#fff"/>
      </g>
      <g id="Grupo_3942" data-name="Grupo 3942" transform="translate(4.62 6.545)">
        <path id="Caminho_3056" data-name="Caminho 3056" d="M73.91,93.2l.166.513h.544l-.438.325.166.513-.438-.317-.438.317.166-.513-.438-.325h.544Z" transform="translate(-73.2 -93.2)" fill="#fff"/>
      </g>
      <g id="Grupo_3943" data-name="Grupo 3943" transform="translate(1.54 6.545)">
        <path id="Caminho_3057" data-name="Caminho 3057" d="M33.11,93.2l.166.513h.551l-.445.325.174.513-.445-.317-.438.317.174-.513-.445-.325h.544Z" transform="translate(-32.4 -93.2)" fill="#fff"/>
      </g>
      <g id="Grupo_3944" data-name="Grupo 3944" transform="translate(13.845 9.157)">
        <path id="Caminho_3058" data-name="Caminho 3058" d="M196.11,127.8l.166.521.544-.008-.438.325.166.513-.438-.317-.438.317.166-.513-.438-.325.544.008Z" transform="translate(-195.4 -127.8)" fill="#fff"/>
      </g>
      <g id="Grupo_3945" data-name="Grupo 3945" transform="translate(10.772 9.157)">
        <path id="Caminho_3059" data-name="Caminho 3059" d="M155.41,127.8l.166.521.544-.008-.445.325.174.513-.438-.317-.445.317.174-.513-.438-.325.544.008Z" transform="translate(-154.7 -127.8)" fill="#fff"/>
      </g>
      <g id="Grupo_3946" data-name="Grupo 3946" transform="translate(7.692 9.157)">
        <path id="Caminho_3060" data-name="Caminho 3060" d="M114.61,127.8l.174.521.544-.008-.445.325.174.513-.445-.317-.438.317.174-.513-.445-.325.544.008Z" transform="translate(-113.9 -127.8)" fill="#fff"/>
      </g>
      <g id="Grupo_3947" data-name="Grupo 3947" transform="translate(4.62 9.157)">
        <path id="Caminho_3061" data-name="Caminho 3061" d="M73.91,127.8l.166.521.544-.008-.438.325.166.513-.438-.317-.438.317.166-.513-.438-.325.544.008Z" transform="translate(-73.2 -127.8)" fill="#fff"/>
      </g>
      <g id="Grupo_3948" data-name="Grupo 3948" transform="translate(1.54 9.157)">
        <path id="Caminho_3062" data-name="Caminho 3062" d="M33.11,127.8l.166.521.551-.008-.445.325.174.513-.445-.317-.438.317.174-.513-.445-.325.544.008Z" transform="translate(-32.4 -127.8)" fill="#fff"/>
      </g>
    </g>
  </g>
</svg>
