<svg xmlns="http://www.w3.org/2000/svg" width="13.6" height="13.6" viewBox="0 0 13.6 13.6">
  <path id="facebook-square-brands" d="M12.143,32H1.457A1.457,1.457,0,0,0,0,33.457V44.143A1.457,1.457,0,0,0,1.457,45.6H5.624V40.976H3.711V38.8H5.624V37.141a2.656,2.656,0,0,1,2.844-2.929,11.586,11.586,0,0,1,1.685.147v1.852H9.2a1.088,1.088,0,0,0-1.227,1.176V38.8h2.088L9.73,40.976H7.976V45.6h4.167A1.457,1.457,0,0,0,13.6,44.143V33.457A1.457,1.457,0,0,0,12.143,32Z" transform="translate(0 -32)" fill="#7e1416"/>
</svg>
