<svg xmlns="http://www.w3.org/2000/svg" width="13.6" height="13.6" viewBox="0 0 13.6 13.6">
  <path id="instagram-brands_1_" data-name="instagram-brands(1)" d="M6.726,35.138a3.487,3.487,0,1,0,3.486,3.487A3.481,3.481,0,0,0,6.726,35.138Zm0,5.754a2.267,2.267,0,1,1,2.266-2.267,2.271,2.271,0,0,1-2.266,2.267ZM11.168,35a.813.813,0,1,1-.813-.813A.811.811,0,0,1,11.168,35Zm2.309.825a4.025,4.025,0,0,0-1.1-2.85,4.05,4.05,0,0,0-2.849-1.1c-1.123-.064-4.487-.064-5.61,0a4.044,4.044,0,0,0-2.849,1.1,4.038,4.038,0,0,0-1.1,2.85c-.064,1.123-.064,4.488,0,5.611a4.025,4.025,0,0,0,1.1,2.85,4.055,4.055,0,0,0,2.849,1.1c1.123.064,4.487.064,5.61,0a4.023,4.023,0,0,0,2.849-1.1,4.052,4.052,0,0,0,1.1-2.85C13.541,40.306,13.541,36.944,13.477,35.821Zm-1.45,6.813a2.3,2.3,0,0,1-1.292,1.293,14.982,14.982,0,0,1-4.008.273,15.1,15.1,0,0,1-4.008-.273,2.3,2.3,0,0,1-1.292-1.293,14.991,14.991,0,0,1-.273-4.009,15.108,15.108,0,0,1,.273-4.009,2.3,2.3,0,0,1,1.292-1.293,14.982,14.982,0,0,1,4.008-.273,15.1,15.1,0,0,1,4.008.273,2.3,2.3,0,0,1,1.292,1.293,14.991,14.991,0,0,1,.273,4.009A14.983,14.983,0,0,1,12.027,42.634Z" transform="translate(0.075 -31.825)" fill="#7e1416"/>
</svg>
