<svg xmlns="http://www.w3.org/2000/svg" width="25.689" height="22.478" viewBox="0 0 25.689 22.478">
  <path id="Icon_awesome-quote-right" data-name="Icon awesome-quote-right" d="M23.28,2.25H16.858A2.409,2.409,0,0,0,14.45,4.658V11.08a2.409,2.409,0,0,0,2.408,2.408h4.014V16.7a3.214,3.214,0,0,1-3.211,3.211h-.4a1.2,1.2,0,0,0-1.2,1.2v2.408a1.2,1.2,0,0,0,1.2,1.2h.4A8.025,8.025,0,0,0,25.689,16.7V4.658A2.409,2.409,0,0,0,23.28,2.25Zm-14.45,0H2.408A2.409,2.409,0,0,0,0,4.658V11.08a2.409,2.409,0,0,0,2.408,2.408H6.422V16.7a3.214,3.214,0,0,1-3.211,3.211h-.4a1.2,1.2,0,0,0-1.2,1.2v2.408a1.2,1.2,0,0,0,1.2,1.2h.4A8.025,8.025,0,0,0,11.239,16.7V4.658A2.409,2.409,0,0,0,8.83,2.25Z" transform="translate(0 -2.25)" fill="#7e1416"/>
</svg>
