<svg xmlns="http://www.w3.org/2000/svg" width="13.415" height="13.6" viewBox="0 0 13.415 13.6">
  <path id="Caminho_3890" data-name="Caminho 3890" d="M74.637,111.689a6.974,6.974,0,0,0-6.666,4.782h.988a5.7,5.7,0,0,1,.367-.791h1.9a8.013,8.013,0,0,0-.208.791h.963a7.432,7.432,0,0,1,.243-.791H74.06v.791h.93v-.791h1.982a6.936,6.936,0,0,1,.272.791h.963a7.778,7.778,0,0,0-.232-.791h1.974a5.694,5.694,0,0,1,.367.791H81.3A6.971,6.971,0,0,0,74.637,111.689Zm1.4,1.094a6.057,6.057,0,0,1,3.26,1.967H77.576A6.522,6.522,0,0,0,76.04,112.782Zm-3.078.068a6.174,6.174,0,0,0-1.37,1.9H69.973A6.049,6.049,0,0,1,72.962,112.851Zm2.028.3a5.358,5.358,0,0,1,1.5,1.6h-1.5Zm-.93.006v1.594h-1.4A4.922,4.922,0,0,1,74.06,113.156Zm-5.811,4.213a.4.4,0,0,0-.232.064.191.191,0,0,0-.093.16.614.614,0,0,0,.044.2l.494,1.42c.015.042.032.09.052.141a.485.485,0,0,0,.079.135.324.324,0,0,0,.131.091.55.55,0,0,0,.208.033.475.475,0,0,0,.247-.056.339.339,0,0,0,.131-.122,2.228,2.228,0,0,0,.091-.21l.442-1.245.44,1.251c.037.093.066.161.089.205a.329.329,0,0,0,.129.122.488.488,0,0,0,.249.054.481.481,0,0,0,.255-.056.334.334,0,0,0,.127-.129,2.053,2.053,0,0,0,.085-.216l.494-1.42a.682.682,0,0,0,.046-.2.19.19,0,0,0-.1-.16.4.4,0,0,0-.23-.064.366.366,0,0,0-.21.05.284.284,0,0,0-.1.11,1.159,1.159,0,0,0-.056.156l-.349,1.208-.39-1.131a2.115,2.115,0,0,0-.089-.208.356.356,0,0,0-.131-.127.5.5,0,0,0-.264-.058.523.523,0,0,0-.264.056.36.36,0,0,0-.139.131,1.505,1.505,0,0,0-.089.205l-.388,1.131-.351-1.216a.69.69,0,0,0-.106-.222A.307.307,0,0,0,68.249,117.369Zm4.78,0a.4.4,0,0,0-.232.064.191.191,0,0,0-.093.16.629.629,0,0,0,.046.2l.494,1.42c.015.042.032.09.052.141a.48.48,0,0,0,.077.135.324.324,0,0,0,.131.091.55.55,0,0,0,.208.033.483.483,0,0,0,.249-.056.331.331,0,0,0,.129-.122,2.23,2.23,0,0,0,.091-.21l.442-1.245.44,1.251c.037.093.066.161.089.205a.329.329,0,0,0,.129.122.488.488,0,0,0,.249.054.481.481,0,0,0,.255-.056.335.335,0,0,0,.127-.129,2.057,2.057,0,0,0,.085-.216l.494-1.42a.682.682,0,0,0,.046-.2.19.19,0,0,0-.1-.16.4.4,0,0,0-.23-.064.366.366,0,0,0-.21.05.284.284,0,0,0-.1.11,1.16,1.16,0,0,0-.056.156l-.349,1.208-.39-1.131a2.112,2.112,0,0,0-.089-.208.348.348,0,0,0-.129-.127.5.5,0,0,0-.264-.058.532.532,0,0,0-.266.056.36.36,0,0,0-.139.131,1.507,1.507,0,0,0-.089.205l-.388,1.131-.351-1.216a.69.69,0,0,0-.1-.222.312.312,0,0,0-.257-.085Zm4.78,0a.4.4,0,0,0-.232.064.191.191,0,0,0-.093.16.629.629,0,0,0,.046.2l.494,1.42c.015.042.032.09.052.141a.48.48,0,0,0,.077.135.324.324,0,0,0,.131.091.55.55,0,0,0,.208.033.483.483,0,0,0,.249-.056.331.331,0,0,0,.129-.122,2.128,2.128,0,0,0,.093-.21l.44-1.245.44,1.251c.037.093.066.161.089.205a.329.329,0,0,0,.129.122.488.488,0,0,0,.249.054.481.481,0,0,0,.255-.056.335.335,0,0,0,.127-.129,2.057,2.057,0,0,0,.085-.216l.494-1.42a.682.682,0,0,0,.046-.2.187.187,0,0,0-.093-.16.407.407,0,0,0-.232-.064.366.366,0,0,0-.21.05.284.284,0,0,0-.1.11,1.159,1.159,0,0,0-.056.156l-.347,1.208-.392-1.131a2.116,2.116,0,0,0-.089-.208.348.348,0,0,0-.129-.127.5.5,0,0,0-.264-.058.532.532,0,0,0-.266.056.36.36,0,0,0-.139.131,1.508,1.508,0,0,0-.089.205l-.388,1.131-.349-1.216a.69.69,0,0,0-.106-.222A.312.312,0,0,0,77.808,117.369Zm-9.873,3.016a7.031,7.031,0,0,0,13.4,0h-.982a5.727,5.727,0,0,1-.336.774H78.028a7.911,7.911,0,0,0,.214-.774h-.948a6.5,6.5,0,0,1-.243.774H74.99v-.774h-.93v.774H72.178a7.868,7.868,0,0,1-.22-.774H71c.053.262.119.521.193.774H69.253a5.738,5.738,0,0,1-.338-.774Zm1.928,1.7H71.53a5.9,5.9,0,0,0,1.372,2.023A6.036,6.036,0,0,1,69.863,122.088Zm2.7,0H74.06v1.737A4.429,4.429,0,0,1,72.566,122.088Zm2.424,0h1.6a5.092,5.092,0,0,1-1.6,1.693Zm2.667,0H79.41a6.047,6.047,0,0,1-3.416,2.119A6.259,6.259,0,0,0,77.657,122.088Z" transform="translate(-67.923 -111.689)" fill="#7e1416"/>
</svg>
